<?xml version="1.0" encoding="utf-8"?>
<!-- Generator: Adobe Illustrator 19.2.1, SVG Export Plug-In . SVG Version: 6.00 Build 0)  -->
<svg version="1.1" id="Layer_1" xmlns="http://www.w3.org/2000/svg" xmlns:xlink="http://www.w3.org/1999/xlink" x="0px" y="0px"
	 viewBox="0 0 512 512" style="enable-background:new 0 0 512 512;" xml:space="preserve">
<style type="text/css">
	.st0{display:none;}
	.st1{display:inline;fill:#844E4E;stroke:#231F20;stroke-width:3;stroke-miterlimit:10;}
	.st2{display:inline;fill:none;stroke:#000000;stroke-width:3;stroke-miterlimit:10;}
	.st3{display:inline;stroke:#000000;stroke-width:3;stroke-miterlimit:10;}
	.st4{display:inline;}
	.st5{clip-path:url(#SVGID_1_);}
	.st6{fill:#844E4E;stroke:#231F20;stroke-width:3;stroke-miterlimit:10;}
	.st7{clip-path:url(#SVGID_2_);}
	.st8{fill:#844E4E;stroke:#231F20;stroke-width:3;stroke-miterlimit:10;stroke-dasharray:2;}
	.st9{clip-path:url(#SVGID_3_);}
	.st10{clip-path:url(#SVGID_4_);}
	.st11{fill:#844E4E;stroke:#231F20;stroke-width:2;stroke-miterlimit:10;stroke-dasharray:2;}
	.st12{fill:#FFFFFF;stroke:#5CD8AF;stroke-width:30;stroke-linecap:round;stroke-miterlimit:10;}
</style>
<g class="st0">
	<line class="st1" x1="176.8" y1="257.1" x2="200.4" y2="300.4"/>
	<line class="st1" x1="315.6" y1="256.4" x2="291.4" y2="299.3"/>
	<line class="st1" x1="174.7" y1="298.3" x2="185.1" y2="308.7"/>
	<line class="st1" x1="318.5" y1="294.8" x2="312.8" y2="302.3"/>
	<line class="st1" x1="141.9" y1="314.3" x2="176.7" y2="332.9"/>
	<line class="st1" x1="311.5" y1="328.6" x2="347.3" y2="307.8"/>
	<line class="st1" x1="321" y1="367.6" x2="367.1" y2="368.5"/>
	<line class="st1" x1="309.8" y1="408" x2="355" y2="441"/>
	<line class="st1" x1="280.7" y1="435.3" x2="308.9" y2="490"/>
	<line class="st1" x1="210.4" y1="435.5" x2="185" y2="483.5"/>
	<line class="st1" x1="174" y1="412.5" x2="132.6" y2="439.8"/>
	<line class="st1" x1="158.8" y1="346.4" x2="173.5" y2="350"/>
	<line class="st1" x1="321" y1="344.7" x2="333.2" y2="342.8"/>
	<line class="st1" x1="322.9" y1="391" x2="341.8" y2="398.6"/>
	<line class="st1" x1="302.1" y1="430.4" x2="319" y2="443.6"/>
	<line class="st1" x1="264.6" y1="446.3" x2="271.2" y2="466.1"/>
	<line class="st1" x1="228.3" y1="449.6" x2="221.7" y2="475"/>
	<line class="st1" x1="187.2" y1="429.5" x2="173.1" y2="447.4"/>
	<line class="st1" x1="173.4" y1="393.6" x2="156.5" y2="404.9"/>
	<line class="st1" x1="169.7" y1="375.2" x2="127.9" y2="376.1"/>
	<path class="st2" d="M199.9,319c0.4,0,0.9,0,1.3,0c14.7-0.3,30.4-0.4,46.7-0.4c16,0,31.4,0.1,45.8,0.4"/>
	<path class="st2" d="M265.8,243.2l8.1,6.8c0,0,28.7,120.3,24.2,137.2s-25.1,28-39.5,28c-6.3,3.4-2.7,9.3-11.7,9.3
		s-6.3-7.6-15.3-9.3c0,0-36.8-4.2-36.8-32.2c0-28,22.4-131.3,22.4-131.3l5.4-7.6L265.8,243.2z"/>
	<polyline class="st2" points="265.8,243.2 267.6,231.5 263.1,227.5 228.6,227 223.7,229.7 222.3,246.7 	"/>
	<path class="st3" d="M263.1,227.5v-8.1c0,0-27.8-1.3-34.5,0.4v7.2"/>
	<path class="st2" d="M266.3,219.8v-17l2.7-1.3v-6.3c0,0-39.5-0.9-45.3,0l1.8,5.8h3.6l-2.7,18.8h2.2H266.3z"/>
	<path class="st2" d="M223.7,195.1l-4.5-0.4l4.5-2.2l-1.3-19.3c0,0,1.3-5.4,4.9-5.4c0-7.2,7.6-9.9,7.6-9.9c1.3-1.8,2.2-5.4,6.7-5.4
		s13.9,0,17.9,0.9c4,0.9,4,4.9,4,4.9c3.1,1.3,5.4,8.5,4.5,11.2c6.3,1.8,5.8,6.7,5.8,6.7l-2.2,14.8l2.7,3.1l-5.4,0.9H223.7z"/>
	<g class="st4">
		<polygon points="236.3,247.4 226.4,255.8 226.9,254.8 221,337.5 224,254.6 224,254 224.5,253.5 234.4,245.2 		"/>
	</g>
	<g class="st4">
		<polygon points="263.4,245.9 270.1,254.3 270.4,254.6 270.5,255 280.6,337.9 267.5,255.4 267.8,256.1 261.1,247.8 		"/>
	</g>
	<g class="st4">
		<polygon points="241.3,247.6 235.9,256 236.1,255.2 232.9,338 233.1,255.2 233.2,254.8 233.4,254.4 238.8,246 		"/>
	</g>
	<g class="st4">
		<path d="M247.3,246.9c-0.3,1.4-0.5,2.8-0.8,4.2c-0.3,1.4-0.6,2.8-1,4.2l0-0.3l-0.7,41.4l-0.4,20.7l-0.4,20.7l-0.4-20.7l-0.4-20.7
			l-0.7-41.4l0-0.1l0-0.2c0.3-1.4,0.5-2.8,0.8-4.2c0.3-1.4,0.6-2.8,1-4.2L247.3,246.9z"/>
	</g>
	<g class="st4">
		<path d="M252.5,246.1c0.5,1.6,1,3.1,1.4,4.7c0.4,1.6,0.9,3.2,1.3,4.7l0.1,0.2l0,0.2l0.6,40.4l0.3,20.2l0.2,20.2l-1.1-20.2l-1-20.2
			l-2.1-40.3l0.1,0.4c-0.5-1.6-1-3.1-1.4-4.7c-0.5-1.6-0.9-3.1-1.3-4.7L252.5,246.1z"/>
	</g>
	<g class="st4">
		<polygon points="259.4,246.5 262.9,254.9 263.1,255.1 263.1,255.4 267.9,339.1 260.1,255.6 260.2,256.1 256.6,247.7 		"/>
	</g>
	<g class="st4">
		<path d="M220.3,342.5c0.2,1.6,0.3,3.3,0.4,4.9l0.3,4.9c0.2,3.3,0.3,6.5,0.3,9.8l0.1,4.9c0,1.6,0,3.3,0,4.9l0,4.9l0,1.2l0,1.2
			c0,0.8,0,1.7,0.1,2.4c0.1,1.5,0.4,3,0.8,4.5c0.4,1.5,0.9,2.9,1.7,4.3l0.5,1c0.2,0.3,0.4,0.6,0.6,1l0.7,1l0.7,0.9
			c0.3,0.3,0.5,0.6,0.7,0.9l0.8,0.9c0.5,0.6,1.1,1.1,1.7,1.7c0.6,0.5,1.2,1.1,1.8,1.6c0.6,0.5,1.2,1,1.9,1.5c1.3,1,2.6,1.9,3.9,2.9
			l8.1,5.6l0,0l0,0c1.7-0.3,3.4-0.9,5-1.5c1.6-0.6,3.2-1.3,4.8-2.1c1.6-0.8,3-1.7,4.5-2.7c1.4-1,2.8-2.1,4-3.2
			c1.2-1.2,2.4-2.4,3.4-3.8c1-1.4,1.9-2.8,2.6-4.3c0.7-1.5,1.3-3.1,1.6-4.7c0.2-0.8,0.3-1.6,0.5-2.4c0.1-0.8,0.2-1.6,0.2-2.5
			c0-1.6,0-3.4-0.1-5.1l-0.1-5.2c0-3.5-0.1-7-0.1-10.5c0-3.5,0-7,0-10.5c0.1-3.5,0.1-7,0.3-10.5l1.5,0c0.3,3.5,0.4,7,0.6,10.4
			c0.2,3.5,0.3,7,0.4,10.4c0.1,3.5,0.2,7,0.3,10.5l0.1,5.2c0,1.7,0.1,3.5,0,5.3c-0.1,1.8-0.4,3.7-1,5.4c-0.5,1.8-1.3,3.5-2.2,5
			c-0.9,1.6-2,3-3.3,4.3c-1.2,1.3-2.6,2.5-4,3.6c-2.8,2.2-5.9,3.8-9.1,5.3c-3.2,1.4-6.5,2.6-9.9,3.4l0,0l0,0l0,0
			c-1.5-0.7-3-1.4-4.4-2.1c-1.5-0.7-2.9-1.5-4.4-2.3c-1.4-0.8-2.9-1.6-4.3-2.5c-0.7-0.4-1.4-0.9-2.1-1.4c-0.7-0.5-1.4-1-2-1.5
			c-0.7-0.5-1.3-1-1.9-1.6l-0.9-0.9c-0.3-0.3-0.6-0.6-0.9-0.9l-0.9-1l-0.8-1c-0.3-0.4-0.5-0.7-0.8-1.1l-0.7-1.1
			c-0.5-0.7-0.8-1.5-1.2-2.3c-0.4-0.8-0.6-1.6-0.9-2.5c-0.5-1.7-0.8-3.4-0.9-5.1c-0.1-0.9-0.1-1.7-0.1-2.5c0-0.4,0-0.8,0-1.3l0-1.2
			l0.1-4.9c0-1.6,0.1-3.3,0.1-4.9l0.2-4.9c0.2-3.3,0.3-6.5,0.6-9.8l0.4-4.9C219.9,345.8,220.1,344.2,220.3,342.5z"/>
	</g>
	<g class="st4">
		<defs>
			<path id="SVGID_9_" d="M223.7,195.1l-4.5-0.4l4.5-2.2l-1.3-19.3c0,0,1.3-5.4,4.9-5.4c0-7.2,7.6-9.9,7.6-9.9
				c1.3-1.8,2.2-5.4,6.7-5.4s13.9,0,17.9,0.9c4,0.9,4,4.9,4,4.9c3.1,1.3,5.4,8.5,4.5,11.2c6.3,1.8,5.8,6.7,5.8,6.7l-2.2,14.8
				l2.7,3.1l-5.4,0.9H223.7z"/>
		</defs>
		<clipPath id="SVGID_1_">
			<use xlink:href="#SVGID_9_"  style="overflow:visible;"/>
		</clipPath>
		<g class="st5">
			<line class="st6" x1="228.5" y1="150.6" x2="291.7" y2="122.3"/>
			<line class="st6" x1="226.5" y1="157.7" x2="289.7" y2="129.4"/>
			<line class="st6" x1="224.4" y1="164.8" x2="287.6" y2="136.5"/>
			<line class="st6" x1="222.4" y1="171.9" x2="285.6" y2="143.6"/>
			<line class="st6" x1="220.4" y1="179" x2="283.6" y2="150.7"/>
			<line class="st6" x1="218.4" y1="186.1" x2="281.6" y2="157.7"/>
			<line class="st6" x1="216.4" y1="193.2" x2="279.6" y2="164.8"/>
			<line class="st6" x1="214.3" y1="200.3" x2="277.5" y2="171.9"/>
			<line class="st6" x1="212.3" y1="207.3" x2="275.5" y2="179"/>
			<line class="st6" x1="210.3" y1="214.4" x2="273.5" y2="186.1"/>
			<line class="st6" x1="208.3" y1="221.5" x2="271.5" y2="193.2"/>
			<line class="st6" x1="206.3" y1="228.6" x2="269.5" y2="200.3"/>
		</g>
	</g>
	<g class="st4">
		<defs>
			<path id="SVGID_11_" d="M266.3,219.8v-17l2.7-1.3v-6.3c0,0-39.5-0.9-45.3,0l1.8,5.8h3.6l-2.7,18.8h2.2H266.3z"/>
		</defs>
		<clipPath id="SVGID_2_">
			<use xlink:href="#SVGID_11_"  style="overflow:visible;"/>
		</clipPath>
		<g class="st7">
			<line class="st8" x1="206.3" y1="224.8" x2="239.9" y2="174.7"/>
			<line class="st8" x1="210.3" y1="226.7" x2="243.9" y2="176.6"/>
			<line class="st8" x1="214.3" y1="228.6" x2="248" y2="178.5"/>
			<line class="st8" x1="218.3" y1="230.6" x2="252" y2="180.5"/>
			<line class="st8" x1="222.3" y1="232.5" x2="256" y2="182.4"/>
			<line class="st8" x1="226.3" y1="234.4" x2="260" y2="184.3"/>
			<line class="st8" x1="230.3" y1="236.4" x2="264" y2="186.3"/>
			<line class="st8" x1="234.3" y1="238.3" x2="268" y2="188.2"/>
			<line class="st8" x1="238.3" y1="240.2" x2="272" y2="190.1"/>
			<line class="st8" x1="242.3" y1="242.2" x2="276" y2="192.1"/>
			<line class="st8" x1="246.4" y1="244.1" x2="280" y2="194"/>
		</g>
	</g>
	<g class="st4">
		<defs>
			<polyline id="SVGID_13_" points="265.5,242.9 267.3,231.2 262.8,227.2 228.3,226.7 223.4,229.4 222,246.4 			"/>
		</defs>
		<clipPath id="SVGID_3_">
			<use xlink:href="#SVGID_13_"  style="overflow:visible;"/>
		</clipPath>
		<g class="st9">
			<line class="st6" x1="221.2" y1="225.3" x2="269.8" y2="225.3"/>
			<line class="st6" x1="221.2" y1="228" x2="269.8" y2="228"/>
			<line class="st6" x1="221.2" y1="230.7" x2="269.8" y2="230.7"/>
			<line class="st6" x1="221.2" y1="233.5" x2="269.8" y2="233.5"/>
			<line class="st6" x1="221.2" y1="236.2" x2="269.8" y2="236.2"/>
			<line class="st6" x1="221.2" y1="238.9" x2="269.8" y2="238.9"/>
			<line class="st6" x1="221.2" y1="241.7" x2="269.8" y2="241.7"/>
			<line class="st6" x1="221.2" y1="244.4" x2="269.8" y2="244.4"/>
			<line class="st6" x1="221.2" y1="247.1" x2="269.8" y2="247.1"/>
		</g>
	</g>
	<path class="st2" d="M255.6,115.5c0.4-13.9-1.3-22.4-2.7-21.5c-1.3-4.5,2.7-21.1,2.7-21.1c1.3-9.8-2.2-9.9-0.1-23.7
		c2.1-13.8-0.6-14.7-0.6-14.7c1.2-14.1-1.5-17-1.5-17c-0.6-4.2,1.8-15.6,1.8-15.6l-9.3-1.5c0,6.6-2.7,8.7-2.7,8.7s2.1,10.5,2.1,15.3
		c0,4.8-3.3,13.8-1.5,25.1c1.8,11.4-0.4,21.6-0.4,21.6c1.8,12.1-0.4,9.9-0.4,9.9c0,8.1,2.2,15.3,2.7,18.8c0.4,3.6-2.2,14.4,0.4,21.5
		c2.7,7.2-3.6,21.1-3.6,31l12.6,0.4c0,0-0.4-10.8-0.4-17.5S258.3,119.1,255.6,115.5z"/>
	<g class="st4">
		<defs>
			<path id="SVGID_15_" d="M255.6,115.8c0.4-13.9-1.3-22.4-2.7-21.5c-1.3-4.5,2.7-21.1,2.7-21.1c1.3-9.8-2.2-9.9-0.1-23.7
				c2.1-13.8-0.6-14.7-0.6-14.7c1.2-14.1-1.5-17-1.5-17c-0.6-4.2,1.8-15.6,1.8-15.6l-9.3-1.5c0,6.6-2.7,8.7-2.7,8.7
				s2.1,10.5,2.1,15.3c0,4.8-3.3,13.8-1.5,25.1c1.8,11.4-0.4,21.6-0.4,21.6c1.8,12.1-0.4,9.9-0.4,9.9c0,8.1,2.2,15.3,2.7,18.8
				c0.4,3.6-2.2,14.4,0.4,21.5c2.7,7.2-3.6,21.1-3.6,31l12.6,0.4c0,0-0.4-10.8-0.4-17.5C254.7,128.8,258.3,119.4,255.6,115.8z"/>
		</defs>
		<clipPath id="SVGID_4_">
			<use xlink:href="#SVGID_15_"  style="overflow:visible;"/>
		</clipPath>
		<g class="st10">
			<g>
				<line class="st11" x1="229.7" y1="76.6" x2="257.7" y2="61.5"/>
				<line class="st11" x1="230.4" y1="81.9" x2="258.6" y2="66.5"/>
				<line class="st11" x1="231" y1="87.1" x2="259.4" y2="71.5"/>
				<line class="st11" x1="231.7" y1="92.4" x2="260.3" y2="76.5"/>
				<line class="st11" x1="232.4" y1="97.7" x2="261.2" y2="81.5"/>
				<line class="st11" x1="233" y1="103" x2="262" y2="86.5"/>
				<line class="st11" x1="233.7" y1="108.2" x2="262.9" y2="91.5"/>
				<line class="st11" x1="234.4" y1="113.5" x2="263.7" y2="96.5"/>
				<line class="st11" x1="235.1" y1="118.8" x2="264.6" y2="101.4"/>
				<line class="st11" x1="235.7" y1="124" x2="265.4" y2="106.4"/>
				<line class="st11" x1="236.4" y1="129.3" x2="266.3" y2="111.4"/>
				<line class="st11" x1="237.1" y1="134.6" x2="267.2" y2="116.4"/>
				<line class="st11" x1="237.7" y1="139.9" x2="268" y2="121.4"/>
				<line class="st11" x1="238.4" y1="145.1" x2="268.9" y2="126.4"/>
				<line class="st11" x1="239.1" y1="150.4" x2="269.7" y2="131.4"/>
				<line class="st11" x1="239.8" y1="155.7" x2="270.6" y2="136.4"/>
				<line class="st11" x1="240.4" y1="161" x2="271.4" y2="141.4"/>
			</g>
		</g>
		<g class="st10">
			<line class="st11" x1="224.6" y1="-13.7" x2="252.6" y2="-28.8"/>
			<line class="st11" x1="225.3" y1="-8.5" x2="253.5" y2="-23.8"/>
			<line class="st11" x1="225.9" y1="-3.2" x2="254.4" y2="-18.9"/>
			<line class="st11" x1="226.6" y1="2.1" x2="255.2" y2="-13.9"/>
			<line class="st11" x1="227.3" y1="7.3" x2="256.1" y2="-8.9"/>
			<line class="st11" x1="228" y1="12.6" x2="256.9" y2="-3.9"/>
			<line class="st11" x1="228.6" y1="17.9" x2="257.8" y2="1.1"/>
			<line class="st11" x1="229.3" y1="23.2" x2="258.6" y2="6.1"/>
			<line class="st11" x1="230" y1="28.4" x2="259.5" y2="11.1"/>
			<line class="st11" x1="230.6" y1="33.7" x2="260.4" y2="16.1"/>
			<line class="st11" x1="231.3" y1="39" x2="261.2" y2="21.1"/>
			<line class="st11" x1="232" y1="44.3" x2="262.1" y2="26.1"/>
			<line class="st11" x1="232.7" y1="49.5" x2="262.9" y2="31.1"/>
			<line class="st11" x1="233.3" y1="54.8" x2="263.8" y2="36.1"/>
			<line class="st11" x1="234" y1="60.1" x2="264.6" y2="41.1"/>
			<line class="st11" x1="234.7" y1="65.4" x2="265.5" y2="46.1"/>
			<line class="st11" x1="235.4" y1="70.6" x2="266.4" y2="51.1"/>
		</g>
	</g>
</g>
<g id="yYoo2B.tif" class="st0">
	
		<image style="display:inline;overflow:visible;" width="11" height="15" id="Layer_1_1_" xlink:href="E2B81B46C7620A7B.png"  transform="matrix(17.625 0 0 17.625 158.5625 123.3125)">
	</image>
</g>
<line class="st12" x1="112.3" y1="427.7" x2="318.7" y2="258.3"/>
<line class="st12" x1="318.8" y1="256" x2="102.2" y2="100"/>
</svg>
