<?xml version="1.0" encoding="utf-8"?>
<!-- Generator: Adobe Illustrator 19.2.1, SVG Export Plug-In . SVG Version: 6.00 Build 0)  -->
<svg version="1.1" id="Layer_1" xmlns="http://www.w3.org/2000/svg" xmlns:xlink="http://www.w3.org/1999/xlink" x="0px" y="0px"
	 viewBox="0 0 202 565" style="enable-background:new 0 0 202 565;" xml:space="preserve">
<style type="text/css">
	.st0{display:none;fill:none;stroke:#5CD8AF;stroke-width:30;stroke-linecap:round;stroke-miterlimit:10;}
	.st1{display:none;stroke:#000000;stroke-miterlimit:10;}
	.st2{display:none;}
	.st3{display:inline;fill:none;stroke:#FFFFFF;stroke-width:3;stroke-miterlimit:10;}
	.st4{display:inline;}
	.st5{fill:#FFFFFF;stroke:#FFFFFF;stroke-miterlimit:10;}
	.st6{clip-path:url(#SVGID_10_);}
	.st7{fill:none;stroke:#FFFFFF;stroke-width:3;stroke-miterlimit:10;}
	.st8{fill:none;stroke:#FFFFFF;stroke-miterlimit:10;}
	.st9{clip-path:url(#SVGID_12_);}
	.st10{fill:none;stroke:#FFFFFF;stroke-width:3;stroke-miterlimit:10;stroke-dasharray:2;}
	.st11{clip-path:url(#SVGID_14_);}
	.st12{clip-path:url(#SVGID_16_);}
	.st13{fill:none;stroke:#FFFFFF;stroke-width:2;stroke-miterlimit:10;stroke-dasharray:2;}
	.st14{clip-path:url(#SVGID_18_);}
	.st15{clip-path:url(#SVGID_20_);}
	.st16{fill:none;stroke:#FFFFFF;stroke-width:2;stroke-miterlimit:10;}
	.st17{clip-path:url(#SVGID_22_);}
	.st18{clip-path:url(#SVGID_24_);}
	.st19{clip-path:url(#SVGID_26_);}
</style>
<line class="st0" x1="7" y1="299" x2="274" y2="299"/>
<line class="st0" x1="145.5" y1="432.5" x2="145.5" y2="165.5"/>
<rect x="-28" y="-37" class="st1" width="281" height="604"/>
<g class="st2">
	<line class="st3" x1="53.8" y1="309.1" x2="77.4" y2="352.4"/>
	<line class="st3" x1="192.6" y1="308.4" x2="168.4" y2="351.3"/>
	<line class="st3" x1="51.7" y1="350.3" x2="62.1" y2="360.7"/>
	<line class="st3" x1="195.5" y1="346.8" x2="189.8" y2="354.3"/>
	<line class="st3" x1="18.9" y1="366.3" x2="53.7" y2="384.9"/>
	<line class="st3" x1="188.5" y1="380.6" x2="224.3" y2="359.8"/>
	<line class="st3" x1="198" y1="419.6" x2="244.1" y2="420.5"/>
	<line class="st3" x1="186.8" y1="460" x2="232" y2="493"/>
	<line class="st3" x1="157.7" y1="487.3" x2="185.9" y2="542"/>
	<line class="st3" x1="87.4" y1="487.5" x2="62" y2="535.5"/>
	<line class="st3" x1="51" y1="464.5" x2="9.6" y2="491.8"/>
	<line class="st3" x1="35.8" y1="398.4" x2="50.5" y2="402"/>
	<line class="st3" x1="198" y1="396.7" x2="210.2" y2="394.8"/>
	<line class="st3" x1="199.9" y1="443" x2="218.8" y2="450.6"/>
	<line class="st3" x1="179.1" y1="482.4" x2="196" y2="495.6"/>
	<line class="st3" x1="141.6" y1="498.3" x2="148.2" y2="518.1"/>
	<line class="st3" x1="105.3" y1="501.6" x2="98.7" y2="527"/>
	<line class="st3" x1="64.2" y1="481.5" x2="50.1" y2="499.4"/>
	<line class="st3" x1="50.4" y1="445.6" x2="33.5" y2="456.9"/>
	<line class="st3" x1="46.7" y1="427.2" x2="4.9" y2="428.1"/>
	<path class="st3" d="M76.9,371c0.4,0,0.9,0,1.3,0c14.7-0.3,30.4-0.4,46.7-0.4c16,0,31.4,0.1,45.8,0.4"/>
	<path class="st3" d="M142.8,295.2l8.1,6.8c0,0,28.7,120.3,24.2,137.2s-25.1,28-39.5,28c-6.3,3.4-2.7,9.3-11.7,9.3
		s-6.3-7.6-15.3-9.3c0,0-36.8-4.2-36.8-32.2s22.4-131.3,22.4-131.3l5.4-7.6L142.8,295.2z"/>
	<polyline class="st3" points="142.8,295.2 144.6,283.5 140.1,279.5 105.6,279 100.7,281.7 99.3,298.7 	"/>
	<path class="st3" d="M140.1,279.5v-8.1c0,0-27.8-1.3-34.5,0.4v7.2"/>
	<path class="st3" d="M143.3,271.8v-17l2.7-1.3v-6.3c0,0-39.5-0.9-45.3,0l1.8,5.8h3.6l-2.7,18.8h2.2H143.3z"/>
	<path class="st3" d="M100.7,247.1l-4.5-0.4l4.5-2.2l-1.3-19.3c0,0,1.3-5.4,4.9-5.4c0-7.2,7.6-9.9,7.6-9.9c1.3-1.8,2.2-5.4,6.7-5.4
		s13.9,0,17.9,0.9c4,0.9,4,4.9,4,4.9c3.1,1.3,5.4,8.5,4.5,11.2c6.3,1.8,5.8,6.7,5.8,6.7l-2.2,14.8l2.7,3.1l-5.4,0.9L100.7,247.1
		L100.7,247.1z"/>
	<g class="st4">
		<polygon class="st5" points="113.3,299.4 103.4,307.8 103.9,306.8 98,389.5 101,306.6 101,306 101.5,305.5 111.4,297.2 		"/>
	</g>
	<g class="st4">
		<polygon class="st5" points="140.4,297.9 147.1,306.3 147.4,306.6 147.5,307 157.6,389.9 144.5,307.4 144.8,308.1 138.1,299.8 		
			"/>
	</g>
	<g class="st4">
		<polygon class="st5" points="118.3,299.6 112.9,308 113.1,307.2 109.9,390 110.1,307.2 110.2,306.8 110.4,306.4 115.8,298 		"/>
	</g>
	<g class="st4">
		<path class="st5" d="M124.3,298.9c-0.3,1.4-0.5,2.8-0.8,4.2c-0.3,1.4-0.6,2.8-1,4.2V307l-0.7,41.4l-0.4,20.7l-0.4,20.7l-0.4-20.7
			l-0.4-20.7l-0.7-41.4v-0.1v-0.2c0.3-1.4,0.5-2.8,0.8-4.2s0.6-2.8,1-4.2L124.3,298.9z"/>
	</g>
	<g class="st4">
		<path class="st5" d="M129.5,298.1c0.5,1.6,1,3.1,1.4,4.7c0.4,1.6,0.9,3.2,1.3,4.7l0.1,0.2v0.2l0.6,40.4l0.3,20.2l0.2,20.2
			l-1.1-20.2l-1-20.2l-2.1-40.3l0.1,0.4c-0.5-1.6-1-3.1-1.4-4.7c-0.5-1.6-0.9-3.1-1.3-4.7L129.5,298.1z"/>
	</g>
	<g class="st4">
		<polygon class="st5" points="136.4,298.5 139.9,306.9 140.1,307.1 140.1,307.4 144.9,391.1 137.1,307.6 137.2,308.1 133.6,299.7 
					"/>
	</g>
	<g class="st4">
		<path class="st5" d="M97.3,394.5c0.2,1.6,0.3,3.3,0.4,4.9l0.3,4.9c0.2,3.3,0.3,6.5,0.3,9.8l0.1,4.9c0,1.6,0,3.3,0,4.9v4.9v1.2v1.2
			c0,0.8,0,1.7,0.1,2.4c0.1,1.5,0.4,3,0.8,4.5c0.4,1.5,0.9,2.9,1.7,4.3l0.5,1c0.2,0.3,0.4,0.6,0.6,1l0.7,1l0.7,0.9
			c0.3,0.3,0.5,0.6,0.7,0.9l0.8,0.9c0.5,0.6,1.1,1.1,1.7,1.7c0.6,0.5,1.2,1.1,1.8,1.6s1.2,1,1.9,1.5c1.3,1,2.6,1.9,3.9,2.9l8.1,5.6
			l0,0l0,0c1.7-0.3,3.4-0.9,5-1.5s3.2-1.3,4.8-2.1c1.6-0.8,3-1.7,4.5-2.7c1.4-1,2.8-2.1,4-3.2c1.2-1.2,2.4-2.4,3.4-3.8
			s1.9-2.8,2.6-4.3s1.3-3.1,1.6-4.7c0.2-0.8,0.3-1.6,0.5-2.4c0.1-0.8,0.2-1.6,0.2-2.5c0-1.6,0-3.4-0.1-5.1l-0.1-5.2
			c0-3.5-0.1-7-0.1-10.5s0-7,0-10.5c0.1-3.5,0.1-7,0.3-10.5h1.5c0.3,3.5,0.4,7,0.6,10.4c0.2,3.5,0.3,7,0.4,10.4
			c0.1,3.5,0.2,7,0.3,10.5l0.1,5.2c0,1.7,0.1,3.5,0,5.3s-0.4,3.7-1,5.4c-0.5,1.8-1.3,3.5-2.2,5c-0.9,1.6-2,3-3.3,4.3
			c-1.2,1.3-2.6,2.5-4,3.6c-2.8,2.2-5.9,3.8-9.1,5.3c-3.2,1.4-6.5,2.6-9.9,3.4l0,0l0,0l0,0c-1.5-0.7-3-1.4-4.4-2.1
			c-1.5-0.7-2.9-1.5-4.4-2.3c-1.4-0.8-2.9-1.6-4.3-2.5c-0.7-0.4-1.4-0.9-2.1-1.4c-0.7-0.5-1.4-1-2-1.5c-0.7-0.5-1.3-1-1.9-1.6
			l-0.9-0.9c-0.3-0.3-0.6-0.6-0.9-0.9l-0.9-1l-0.8-1c-0.3-0.4-0.5-0.7-0.8-1.1l-0.7-1.1c-0.5-0.7-0.8-1.5-1.2-2.3s-0.6-1.6-0.9-2.5
			c-0.5-1.7-0.8-3.4-0.9-5.1c-0.1-0.9-0.1-1.7-0.1-2.5c0-0.4,0-0.8,0-1.3v-1.2l0.1-4.9c0-1.6,0.1-3.3,0.1-4.9l0.2-4.9
			c0.2-3.3,0.3-6.5,0.6-9.8l0.4-4.9C96.9,397.8,97.1,396.2,97.3,394.5z"/>
	</g>
	<g class="st4">
		<g>
			<g>
				<defs>
					<path id="SVGID_8_" d="M100.7,247.1l-4.5-0.4l4.5-2.2l-1.3-19.3c0,0,1.3-5.4,4.9-5.4c0-7.2,7.6-9.9,7.6-9.9
						c1.3-1.8,2.2-5.4,6.7-5.4s13.9,0,17.9,0.9c4,0.9,4,4.9,4,4.9c3.1,1.3,5.4,8.5,4.5,11.2c6.3,1.8,5.8,6.7,5.8,6.7l-2.2,14.8
						l2.7,3.1l-5.4,0.9L100.7,247.1L100.7,247.1z"/>
				</defs>
				<clipPath id="SVGID_10_">
					<use xlink:href="#SVGID_8_"  style="overflow:visible;"/>
				</clipPath>
				<g class="st6">
					<line class="st7" x1="105.5" y1="202.6" x2="168.7" y2="174.3"/>
					<line class="st7" x1="103.5" y1="209.7" x2="166.7" y2="181.4"/>
					<line class="st7" x1="101.4" y1="216.8" x2="164.6" y2="188.5"/>
					<line class="st7" x1="99.4" y1="223.9" x2="162.6" y2="195.6"/>
					<line class="st7" x1="97.4" y1="231" x2="160.6" y2="202.7"/>
					<line class="st7" x1="95.4" y1="238.1" x2="158.6" y2="209.7"/>
					<line class="st7" x1="93.4" y1="245.2" x2="156.6" y2="216.8"/>
					<line class="st7" x1="91.3" y1="252.3" x2="154.5" y2="223.9"/>
					<line class="st7" x1="89.3" y1="259.3" x2="152.5" y2="231"/>
					<line class="st7" x1="87.3" y1="266.4" x2="150.5" y2="238.1"/>
					<line class="st7" x1="85.3" y1="273.5" x2="148.5" y2="245.2"/>
					<line class="st7" x1="83.3" y1="280.6" x2="146.5" y2="252.3"/>
				</g>
			</g>
			<g>
				<path id="SVGID_1_" class="st8" d="M100.7,247.1l-4.5-0.4l4.5-2.2l-1.3-19.3c0,0,1.3-5.4,4.9-5.4c0-7.2,7.6-9.9,7.6-9.9
					c1.3-1.8,2.2-5.4,6.7-5.4s13.9,0,17.9,0.9c4,0.9,4,4.9,4,4.9c3.1,1.3,5.4,8.5,4.5,11.2c6.3,1.8,5.8,6.7,5.8,6.7l-2.2,14.8
					l2.7,3.1l-5.4,0.9L100.7,247.1L100.7,247.1z"/>
			</g>
		</g>
	</g>
	<g class="st4">
		<g>
			<g>
				<defs>
					<path id="SVGID_11_" d="M143.3,271.8v-17l2.7-1.3v-6.3c0,0-39.5-0.9-45.3,0l1.8,5.8h3.6l-2.7,18.8h2.2H143.3z"/>
				</defs>
				<clipPath id="SVGID_12_">
					<use xlink:href="#SVGID_11_"  style="overflow:visible;"/>
				</clipPath>
				<g class="st9">
					<line class="st10" x1="83.3" y1="276.8" x2="116.9" y2="226.7"/>
					<line class="st10" x1="87.3" y1="278.7" x2="120.9" y2="228.6"/>
					<line class="st10" x1="91.3" y1="280.6" x2="125" y2="230.5"/>
					<line class="st10" x1="95.3" y1="282.6" x2="129" y2="232.5"/>
					<line class="st10" x1="99.3" y1="284.5" x2="133" y2="234.4"/>
					<line class="st10" x1="103.3" y1="286.4" x2="137" y2="236.3"/>
					<line class="st10" x1="107.3" y1="288.4" x2="141" y2="238.3"/>
					<line class="st10" x1="111.3" y1="290.3" x2="145" y2="240.2"/>
					<line class="st10" x1="115.3" y1="292.2" x2="149" y2="242.1"/>
					<line class="st10" x1="119.3" y1="294.2" x2="153" y2="244.1"/>
					<line class="st10" x1="123.4" y1="296.1" x2="157" y2="246"/>
				</g>
			</g>
			<g>
				<path id="SVGID_3_" class="st8" d="M143.3,271.8v-17l2.7-1.3v-6.3c0,0-39.5-0.9-45.3,0l1.8,5.8h3.6l-2.7,18.8h2.2H143.3z"/>
			</g>
		</g>
	</g>
	<g class="st4">
		<g>
			<g>
				<defs>
					<polyline id="SVGID_13_" points="142.5,294.9 144.3,283.2 139.8,279.2 105.3,278.7 100.4,281.4 99,298.4 					"/>
				</defs>
				<clipPath id="SVGID_14_">
					<use xlink:href="#SVGID_13_"  style="overflow:visible;"/>
				</clipPath>
				<g class="st11">
					<line class="st7" x1="98.2" y1="277.3" x2="146.8" y2="277.3"/>
					<line class="st7" x1="98.2" y1="280" x2="146.8" y2="280"/>
					<line class="st7" x1="98.2" y1="282.7" x2="146.8" y2="282.7"/>
					<line class="st7" x1="98.2" y1="285.5" x2="146.8" y2="285.5"/>
					<line class="st7" x1="98.2" y1="288.2" x2="146.8" y2="288.2"/>
					<line class="st7" x1="98.2" y1="290.9" x2="146.8" y2="290.9"/>
					<line class="st7" x1="98.2" y1="293.7" x2="146.8" y2="293.7"/>
					<line class="st7" x1="98.2" y1="296.4" x2="146.8" y2="296.4"/>
					<line class="st7" x1="98.2" y1="299.1" x2="146.8" y2="299.1"/>
				</g>
			</g>
			<g>
				<polyline id="SVGID_5_" class="st8" points="142.5,294.9 144.3,283.2 139.8,279.2 105.3,278.7 100.4,281.4 99,298.4 				"/>
			</g>
		</g>
	</g>
	<path class="st3" d="M132.6,167.5c0.4-13.9-1.3-22.4-2.7-21.5c-1.3-4.5,2.7-21.1,2.7-21.1c1.3-9.8-2.2-9.9-0.1-23.7
		c2.1-13.8-0.6-14.7-0.6-14.7c1.2-14.1-1.5-17-1.5-17c-0.6-4.2,1.8-15.6,1.8-15.6l-9.3-1.5c0,6.6-2.7,8.7-2.7,8.7s2.1,10.5,2.1,15.3
		c0,4.8-3.3,13.8-1.5,25.1c1.8,11.4-0.4,21.6-0.4,21.6c1.8,12.1-0.4,9.9-0.4,9.9c0,8.1,2.2,15.3,2.7,18.8c0.4,3.6-2.2,14.4,0.4,21.5
		c2.7,7.2-3.6,21.1-3.6,31l12.6,0.4c0,0-0.4-10.8-0.4-17.5S135.3,171.1,132.6,167.5z"/>
	<g class="st4">
		<g>
			<g>
				<defs>
					<path id="SVGID_15_" d="M132.6,167.8c0.4-13.9-1.3-22.4-2.7-21.5c-1.3-4.5,2.7-21.1,2.7-21.1c1.3-9.8-2.2-9.9-0.1-23.7
						c2.1-13.8-0.6-14.7-0.6-14.7c1.2-14.1-1.5-17-1.5-17c-0.6-4.2,1.8-15.6,1.8-15.6l-9.3-1.5c0,6.6-2.7,8.7-2.7,8.7
						s2.1,10.5,2.1,15.3c0,4.8-3.3,13.8-1.5,25.1c1.8,11.4-0.4,21.6-0.4,21.6c1.8,12.1-0.4,9.9-0.4,9.9c0,8.1,2.2,15.3,2.7,18.8
						c0.4,3.6-2.2,14.4,0.4,21.5c2.7,7.2-3.6,21.1-3.6,31l12.6,0.4c0,0-0.4-10.8-0.4-17.5C131.7,180.8,135.3,171.4,132.6,167.8z"/>
				</defs>
				<clipPath id="SVGID_16_">
					<use xlink:href="#SVGID_15_"  style="overflow:visible;"/>
				</clipPath>
				<g class="st12">
					<g>
						<line class="st13" x1="106.7" y1="128.6" x2="134.7" y2="113.5"/>
						<line class="st13" x1="107.4" y1="133.9" x2="135.6" y2="118.5"/>
						<line class="st13" x1="108" y1="139.1" x2="136.4" y2="123.5"/>
						<line class="st13" x1="108.7" y1="144.4" x2="137.3" y2="128.5"/>
						<line class="st13" x1="109.4" y1="149.7" x2="138.2" y2="133.5"/>
						<line class="st13" x1="110" y1="155" x2="139" y2="138.5"/>
						<line class="st13" x1="110.7" y1="160.2" x2="139.9" y2="143.5"/>
						<line class="st13" x1="111.4" y1="165.5" x2="140.7" y2="148.5"/>
						<line class="st13" x1="112.1" y1="170.8" x2="141.6" y2="153.4"/>
						<line class="st13" x1="112.7" y1="176" x2="142.4" y2="158.4"/>
						<line class="st13" x1="113.4" y1="181.3" x2="143.3" y2="163.4"/>
						<line class="st13" x1="114.1" y1="186.6" x2="144.2" y2="168.4"/>
						<line class="st13" x1="114.7" y1="191.9" x2="145" y2="173.4"/>
						<line class="st13" x1="115.4" y1="197.1" x2="145.9" y2="178.4"/>
						<line class="st13" x1="116.1" y1="202.4" x2="146.7" y2="183.4"/>
						<line class="st13" x1="116.8" y1="207.7" x2="147.6" y2="188.4"/>
						<line class="st13" x1="117.4" y1="213" x2="148.4" y2="193.4"/>
					</g>
				</g>
			</g>
			<g>
				<path id="SVGID_7_" class="st8" d="M132.6,167.8c0.4-13.9-1.3-22.4-2.7-21.5c-1.3-4.5,2.7-21.1,2.7-21.1
					c1.3-9.8-2.2-9.9-0.1-23.7c2.1-13.8-0.6-14.7-0.6-14.7c1.2-14.1-1.5-17-1.5-17c-0.6-4.2,1.8-15.6,1.8-15.6l-9.3-1.5
					c0,6.6-2.7,8.7-2.7,8.7s2.1,10.5,2.1,15.3c0,4.8-3.3,13.8-1.5,25.1c1.8,11.4-0.4,21.6-0.4,21.6c1.8,12.1-0.4,9.9-0.4,9.9
					c0,8.1,2.2,15.3,2.7,18.8c0.4,3.6-2.2,14.4,0.4,21.5c2.7,7.2-3.6,21.1-3.6,31l12.6,0.4c0,0-0.4-10.8-0.4-17.5
					C131.7,180.8,135.3,171.4,132.6,167.8z"/>
			</g>
		</g>
		<g>
			<g>
				<defs>
					<path id="SVGID_17_" d="M132.6,167.8c0.4-13.9-1.3-22.4-2.7-21.5c-1.3-4.5,2.7-21.1,2.7-21.1c1.3-9.8-2.2-9.9-0.1-23.7
						c2.1-13.8-0.6-14.7-0.6-14.7c1.2-14.1-1.5-17-1.5-17c-0.6-4.2,1.8-15.6,1.8-15.6l-9.3-1.5c0,6.6-2.7,8.7-2.7,8.7
						s2.1,10.5,2.1,15.3c0,4.8-3.3,13.8-1.5,25.1c1.8,11.4-0.4,21.6-0.4,21.6c1.8,12.1-0.4,9.9-0.4,9.9c0,8.1,2.2,15.3,2.7,18.8
						c0.4,3.6-2.2,14.4,0.4,21.5c2.7,7.2-3.6,21.1-3.6,31l12.6,0.4c0,0-0.4-10.8-0.4-17.5C131.7,180.8,135.3,171.4,132.6,167.8z"/>
				</defs>
				<clipPath id="SVGID_18_">
					<use xlink:href="#SVGID_17_"  style="overflow:visible;"/>
				</clipPath>
				<g class="st14">
					<line class="st13" x1="101.6" y1="38.3" x2="129.6" y2="23.2"/>
					<line class="st13" x1="102.3" y1="43.5" x2="130.5" y2="28.2"/>
					<line class="st13" x1="102.9" y1="48.8" x2="131.4" y2="33.1"/>
					<line class="st13" x1="103.6" y1="54.1" x2="132.2" y2="38.1"/>
					<line class="st13" x1="104.3" y1="59.3" x2="133.1" y2="43.1"/>
					<line class="st13" x1="105" y1="64.6" x2="133.9" y2="48.1"/>
					<line class="st13" x1="105.6" y1="69.9" x2="134.8" y2="53.1"/>
					<line class="st13" x1="106.3" y1="75.2" x2="135.6" y2="58.1"/>
					<line class="st13" x1="107" y1="80.4" x2="136.5" y2="63.1"/>
					<line class="st13" x1="107.6" y1="85.7" x2="137.4" y2="68.1"/>
					<line class="st13" x1="108.3" y1="91" x2="138.2" y2="73.1"/>
					<line class="st13" x1="109" y1="96.3" x2="139.1" y2="78.1"/>
					<line class="st13" x1="109.7" y1="101.5" x2="139.9" y2="83.1"/>
					<line class="st13" x1="110.3" y1="106.8" x2="140.8" y2="88.1"/>
					<line class="st13" x1="111" y1="112.1" x2="141.6" y2="93.1"/>
					<line class="st13" x1="111.7" y1="117.4" x2="142.5" y2="98.1"/>
					<line class="st13" x1="112.4" y1="122.6" x2="143.4" y2="103.1"/>
				</g>
			</g>
			<g>
				<path id="SVGID_9_" class="st8" d="M132.6,167.8c0.4-13.9-1.3-22.4-2.7-21.5c-1.3-4.5,2.7-21.1,2.7-21.1
					c1.3-9.8-2.2-9.9-0.1-23.7c2.1-13.8-0.6-14.7-0.6-14.7c1.2-14.1-1.5-17-1.5-17c-0.6-4.2,1.8-15.6,1.8-15.6l-9.3-1.5
					c0,6.6-2.7,8.7-2.7,8.7s2.1,10.5,2.1,15.3c0,4.8-3.3,13.8-1.5,25.1c1.8,11.4-0.4,21.6-0.4,21.6c1.8,12.1-0.4,9.9-0.4,9.9
					c0,8.1,2.2,15.3,2.7,18.8c0.4,3.6-2.2,14.4,0.4,21.5c2.7,7.2-3.6,21.1-3.6,31l12.6,0.4c0,0-0.4-10.8-0.4-17.5
					C131.7,180.8,135.3,171.4,132.6,167.8z"/>
			</g>
		</g>
	</g>
</g>
<image style="display:none;overflow:visible;" width="202" height="565" xlink:href="lamp_white.png"  transform="matrix(1 0 0 1 7.0027 -0.5207)">
</image>
<line class="st7" x1="57.4" y1="369.1" x2="74.1" y2="399.9"/>
<line class="st7" x1="155.9" y1="368.6" x2="138.8" y2="399.1"/>
<line class="st7" x1="55.9" y1="398.4" x2="63.3" y2="405.8"/>
<line class="st7" x1="158" y1="395.9" x2="153.9" y2="401.2"/>
<line class="st7" x1="32.6" y1="409.7" x2="57.3" y2="422.9"/>
<line class="st7" x1="153" y1="419.9" x2="178.4" y2="405.1"/>
<line class="st7" x1="159.8" y1="447.6" x2="192.5" y2="448.2"/>
<line class="st7" x1="151.8" y1="476.3" x2="183.9" y2="499.7"/>
<line class="st7" x1="131.2" y1="495.6" x2="151.2" y2="534.5"/>
<line class="st7" x1="81.2" y1="495.8" x2="63.2" y2="529.9"/>
<line class="st7" x1="55.4" y1="479.5" x2="26" y2="498.8"/>
<line class="st7" x1="44.6" y1="432.5" x2="55.1" y2="435.1"/>
<line class="st7" x1="159.8" y1="431.3" x2="168.4" y2="430"/>
<line class="st7" x1="161.1" y1="464.2" x2="174.5" y2="469.6"/>
<line class="st7" x1="146.4" y1="492.2" x2="158.4" y2="501.5"/>
<line class="st7" x1="119.7" y1="503.5" x2="124.4" y2="517.5"/>
<line class="st7" x1="94" y1="505.8" x2="89.3" y2="523.8"/>
<line class="st7" x1="64.8" y1="491.5" x2="54.8" y2="504.2"/>
<line class="st7" x1="55" y1="466" x2="43" y2="474.1"/>
<line class="st7" x1="52.4" y1="450" x2="22.7" y2="450.6"/>
<path class="st7" d="M73.8,413.1c0.3,0,0.6,0,0.9,0c10.4-0.2,21.6-0.3,33.2-0.3c11.4,0,22.3,0.1,32.5,0.3"/>
<path class="st7" d="M120.6,359.3l5.8,4.8c0,0,20.4,85.4,17.2,97.4s-17.8,19.9-28,19.9c-4.5,2.4-1.9,6.6-8.3,6.6
	c-6.4,0-4.5-5.4-10.9-6.6c0,0-26.1-3-26.1-22.9s15.9-93.2,15.9-93.2l3.8-5.4L120.6,359.3z"/>
<polyline class="st7" points="120.6,359.3 121.9,351 118.7,348.1 94.2,347.8 90.7,349.7 89.7,361.7 "/>
<path class="st7" d="M118.7,348.1v-5.8c0,0-19.7-0.9-24.5,0.3v5.1"/>
<path class="st7" d="M120.9,342.6v-12.1l1.9-0.9v-4.5c0,0-28-0.6-32.2,0l1.3,4.1h2.6l-1.9,13.3h1.6H120.9z"/>
<path class="st7" d="M90.7,325.1l-3.2-0.3l3.2-1.6l-0.9-13.7c0,0,0.9-3.8,3.5-3.8c0-5.1,5.4-7,5.4-7c0.9-1.3,1.6-3.8,4.8-3.8
	s9.9,0,12.7,0.6c2.8,0.6,2.8,3.5,2.8,3.5c2.2,0.9,3.8,6,3.2,8c4.5,1.3,4.1,4.8,4.1,4.8l-1.6,10.5l1.9,2.2l-3.8,0.6L90.7,325.1
	L90.7,325.1z"/>
<g>
	<polygon class="st5" points="99.6,362.2 92.6,368.2 93,367.5 88.8,426.2 90.9,367.4 90.9,366.9 91.3,366.6 98.3,360.7 	"/>
</g>
<g>
	<polygon class="st5" points="118.9,361.2 123.6,367.1 123.8,367.4 123.9,367.6 131.1,426.5 121.8,367.9 122,368.4 117.2,362.5 	"/>
</g>
<g>
	<polygon class="st5" points="103.2,362.4 99.4,368.3 99.5,367.8 97.2,426.6 97.4,367.8 97.4,367.5 97.6,367.2 101.4,361.2 	"/>
</g>
<g>
	<path class="st5" d="M107.4,361.9c-0.2,1-0.4,2-0.6,3c-0.2,1-0.4,2-0.7,3v-0.2l-0.5,29.4l-0.3,14.7l-0.3,14.7l-0.3-14.7l-0.3-14.7
		l-0.5-29.4v-0.1v-0.1c0.2-1,0.4-2,0.6-3c0.2-1,0.4-2,0.7-3L107.4,361.9z"/>
</g>
<g>
	<path class="st5" d="M111.1,361.3c0.4,1.1,0.7,2.2,1,3.3c0.3,1.1,0.6,2.3,0.9,3.3l0.1,0.1v0.1l0.4,28.7l0.2,14.3l0.1,14.3
		l-0.8-14.3l-0.7-14.3l-1.5-28.6l0.1,0.3c-0.4-1.1-0.7-2.2-1-3.3c-0.4-1.1-0.6-2.2-0.9-3.3L111.1,361.3z"/>
</g>
<g>
	<polygon class="st5" points="116,361.6 118.5,367.6 118.7,367.7 118.7,367.9 122.1,427.3 116.5,368.1 116.6,368.4 114,362.5 	"/>
</g>
<g>
	<path class="st5" d="M88.3,429.8c0.1,1.1,0.2,2.3,0.3,3.5l0.2,3.5c0.1,2.3,0.2,4.6,0.2,7l0.1,3.5c0,1.1,0,2.3,0,3.5v3.5v0.9v0.9
		c0,0.6,0,1.2,0.1,1.7c0.1,1.1,0.3,2.1,0.6,3.2c0.3,1.1,0.6,2.1,1.2,3.1l0.4,0.7c0.1,0.2,0.3,0.4,0.4,0.7l0.5,0.7l0.5,0.6
		c0.2,0.2,0.4,0.4,0.5,0.6l0.6,0.6c0.4,0.4,0.8,0.8,1.2,1.2c0.4,0.4,0.9,0.8,1.3,1.1c0.4,0.4,0.9,0.7,1.3,1.1
		c0.9,0.7,1.8,1.3,2.8,2.1l5.8,4l0,0l0,0c1.2-0.2,2.4-0.6,3.5-1.1s2.3-0.9,3.4-1.5c1.1-0.6,2.1-1.2,3.2-1.9c1-0.7,2-1.5,2.8-2.3
		c0.9-0.9,1.7-1.7,2.4-2.7s1.3-2,1.8-3.1s0.9-2.2,1.1-3.3c0.1-0.6,0.2-1.1,0.4-1.7c0.1-0.6,0.1-1.1,0.1-1.8c0-1.1,0-2.4-0.1-3.6
		l-0.1-3.7c0-2.5-0.1-5-0.1-7.5c0-2.5,0-5,0-7.5c0.1-2.5,0.1-5,0.2-7.5h1.1c0.2,2.5,0.3,5,0.4,7.4c0.1,2.5,0.2,5,0.3,7.4
		c0.1,2.5,0.1,5,0.2,7.5l0.1,3.7c0,1.2,0.1,2.5,0,3.8s-0.3,2.6-0.7,3.8c-0.4,1.3-0.9,2.5-1.6,3.5c-0.6,1.1-1.4,2.1-2.3,3.1
		c-0.9,0.9-1.8,1.8-2.8,2.6c-2,1.6-4.2,2.7-6.5,3.8c-2.3,1-4.6,1.8-7,2.4l0,0l0,0l0,0c-1.1-0.5-2.1-1-3.1-1.5
		c-1.1-0.5-2.1-1.1-3.1-1.6c-1-0.6-2.1-1.1-3.1-1.8c-0.5-0.3-1-0.6-1.5-1c-0.5-0.4-1-0.7-1.4-1.1c-0.5-0.4-0.9-0.7-1.3-1.1l-0.6-0.6
		c-0.2-0.2-0.4-0.4-0.6-0.6l-0.6-0.7l-0.6-0.7c-0.2-0.3-0.4-0.5-0.6-0.8l-0.5-0.8c-0.4-0.5-0.6-1.1-0.9-1.6s-0.4-1.1-0.6-1.8
		c-0.4-1.2-0.6-2.4-0.6-3.6c-0.1-0.6-0.1-1.2-0.1-1.8c0-0.3,0-0.6,0-0.9v-0.9l0.1-3.5c0-1.1,0.1-2.3,0.1-3.5l0.1-3.5
		c0.1-2.3,0.2-4.6,0.4-7l0.3-3.5C88,432.1,88.1,431,88.3,429.8z"/>
</g>
<g>
	<g>
		<g>
			<defs>
				<path id="SVGID_19_" d="M90.7,325.1l-3.2-0.3l3.2-1.6l-0.9-13.7c0,0,0.9-3.8,3.5-3.8c0-5.1,5.4-7,5.4-7c0.9-1.3,1.6-3.8,4.8-3.8
					s9.9,0,12.7,0.6c2.8,0.6,2.8,3.5,2.8,3.5c2.2,0.9,3.8,6,3.2,8c4.5,1.3,4.1,4.8,4.1,4.8l-1.6,10.5l1.9,2.2l-3.8,0.6L90.7,325.1
					L90.7,325.1z"/>
			</defs>
			<clipPath id="SVGID_20_">
				<use xlink:href="#SVGID_19_"  style="overflow:visible;"/>
			</clipPath>
			<g class="st15">
				<line class="st16" x1="94.1" y1="293.5" x2="139" y2="273.4"/>
				<line class="st16" x1="92.7" y1="298.6" x2="137.5" y2="278.5"/>
				<line class="st16" x1="91.2" y1="303.6" x2="136.1" y2="283.5"/>
				<line class="st16" x1="89.8" y1="308.6" x2="134.6" y2="288.5"/>
				<line class="st16" x1="88.3" y1="313.7" x2="133.2" y2="293.6"/>
				<line class="st16" x1="86.9" y1="318.7" x2="131.8" y2="298.6"/>
				<line class="st16" x1="85.5" y1="323.8" x2="130.4" y2="303.6"/>
				<line class="st16" x1="84" y1="328.8" x2="128.9" y2="308.6"/>
				<line class="st16" x1="82.6" y1="333.8" x2="127.5" y2="313.7"/>
				<line class="st16" x1="81.2" y1="338.8" x2="126" y2="318.7"/>
				<line class="st16" x1="79.8" y1="343.9" x2="124.6" y2="323.8"/>
				<line class="st16" x1="78.3" y1="348.9" x2="123.2" y2="328.8"/>
			</g>
		</g>
		<g>
			<path id="SVGID_6_" class="st16" d="M90.7,325.1l-3.2-0.3l3.2-1.6l-0.9-13.7c0,0,0.9-3.8,3.5-3.8c0-5.1,5.4-7,5.4-7
				c0.9-1.3,1.6-3.8,4.8-3.8s9.9,0,12.7,0.6c2.8,0.6,2.8,3.5,2.8,3.5c2.2,0.9,3.8,6,3.2,8c4.5,1.3,4.1,4.8,4.1,4.8l-1.6,10.5
				l1.9,2.2l-3.8,0.6L90.7,325.1L90.7,325.1z"/>
		</g>
	</g>
</g>
<g>
	<g>
		<g>
			<defs>
				<path id="SVGID_21_" d="M120.9,342.6v-12.1l1.9-0.9v-4.5c0,0-28-0.6-32.2,0l1.3,4.1h2.6l-1.9,13.3h1.6H120.9z"/>
			</defs>
			<clipPath id="SVGID_22_">
				<use xlink:href="#SVGID_21_"  style="overflow:visible;"/>
			</clipPath>
			<g class="st17">
				<line class="st10" x1="78.3" y1="346.2" x2="102.2" y2="310.6"/>
				<line class="st10" x1="81.2" y1="347.5" x2="105" y2="312"/>
				<line class="st10" x1="84" y1="348.9" x2="107.9" y2="313.3"/>
				<line class="st10" x1="86.9" y1="350.3" x2="110.8" y2="314.7"/>
				<line class="st10" x1="89.7" y1="351.7" x2="113.6" y2="316.1"/>
				<line class="st10" x1="92.5" y1="353" x2="116.5" y2="317.4"/>
				<line class="st10" x1="95.4" y1="354.4" x2="119.3" y2="318.9"/>
				<line class="st10" x1="98.2" y1="355.8" x2="122.1" y2="320.2"/>
				<line class="st10" x1="101.1" y1="357.1" x2="125" y2="321.6"/>
				<line class="st10" x1="103.9" y1="358.5" x2="127.8" y2="323"/>
				<line class="st10" x1="106.8" y1="359.9" x2="130.7" y2="324.3"/>
			</g>
		</g>
		<g>
			<path id="SVGID_4_" class="st8" d="M120.9,342.6v-12.1l1.9-0.9v-4.5c0,0-28-0.6-32.2,0l1.3,4.1h2.6l-1.9,13.3h1.6H120.9z"/>
		</g>
	</g>
</g>
<g>
	<g>
		<g>
			<defs>
				<polyline id="SVGID_23_" points="120.4,359 121.6,350.7 118.5,347.9 94,347.5 90.5,349.5 89.5,361.5 				"/>
			</defs>
			<clipPath id="SVGID_24_">
				<use xlink:href="#SVGID_23_"  style="overflow:visible;"/>
			</clipPath>
			<g class="st18">
				<line class="st7" x1="88.9" y1="346.6" x2="123.4" y2="346.6"/>
				<line class="st7" x1="88.9" y1="348.5" x2="123.4" y2="348.5"/>
				<line class="st7" x1="88.9" y1="350.4" x2="123.4" y2="350.4"/>
				<line class="st7" x1="88.9" y1="352.4" x2="123.4" y2="352.4"/>
				<line class="st7" x1="88.9" y1="354.3" x2="123.4" y2="354.3"/>
				<line class="st7" x1="88.9" y1="356.2" x2="123.4" y2="356.2"/>
				<line class="st7" x1="88.9" y1="358.2" x2="123.4" y2="358.2"/>
				<line class="st7" x1="88.9" y1="360.1" x2="123.4" y2="360.1"/>
				<line class="st7" x1="88.9" y1="362" x2="123.4" y2="362"/>
			</g>
		</g>
		<g>
			<polyline id="SVGID_2_" class="st8" points="120.4,359 121.6,350.7 118.5,347.9 94,347.5 90.5,349.5 89.5,361.5 			"/>
		</g>
	</g>
</g>
<path class="st7" d="M106.5,186.9"/>
<path class="st7" d="M107.9,78"/>
<path class="st7" d="M107.8,79.4c0-7,3.5-18.9,1.6-24c-1.8-5,0-12.7-0.3-15.3c-0.4-2.5-1.9-7.6-1.9-13.3c0,0,1.6,1.6,0.3-7
	c0,0,1.6-7.2,0.3-15.3c-1.3-8,1.1-14.4,1.1-17.8s-1.5-10.9-1.5-10.9s1.9-1.5,1.9-6.2l6.6,1.1c0,0-1.7,8.1-1.3,11.1
	c0,0,1.9,2.1,1.1,12.1c0,0,1.9,0.6,0.4,10.4c-1.5,9.8,1,9.9,0.1,16.8c0,0-2.8,11.8-1.9,15c1-0.6,2.2,5.4,1.9,15.3
	c1.9,2.6-0.6,9.2-0.6,14c0,4.8-0.7,14.4-0.7,14.4l-0.3-0.6c0,0-1.7,8.1-1.3,11.1c0,0,1.9,2.1,1.1,12.1c0,0,1.9,0.6,0.4,10.4
	c-1.5,9.8,1,9.9,0.1,16.8c0,0-2.8,11.8-1.9,15c1-0.6,2.2,5.4,1.9,15.3c1.9,2.6-0.6,9.2-0.6,14c0,4.8-0.7,14.4-0.7,14.4l-0.3-0.2
	c0,0-1.7,8.1-1.3,11.1c0,0,1.9,2.1,1.1,12.1c0,0,1.9,0.6,0.4,10.4c-1.5,9.8,1,9.9,0.1,16.8c0,0-2.8,11.8-1.9,15
	c1-0.6,2.2,5.4,1.9,15.3c1.9,2.6-0.6,9.2-0.6,14S113,295,113,295l-8.9-0.3c0-7,4.5-16.9,2.6-22c-1.8-5,0-12.7-0.3-15.3
	c-0.4-2.5-1.9-7.6-1.9-13.3c0,0,1.6,1.6,0.3-7c0,0,1.6-7.2,0.3-15.3c-1.3-8,1.1-14.4,1.1-17.8s-1.5-10.9-1.5-10.9s1.9-1.5,1.9-6.2
	l0,0c0-7,3.5-17.9,1.6-23c-1.8-5,0-12.7-0.3-15.3c-0.4-2.5-1.9-7.6-1.9-13.3c0,0,1.6,1.6,0.3-7c0,0,1.6-7.2,0.3-15.3
	c-1.3-8,1.1-14.4,1.1-17.8S106,84.2,106,84.2s1.9-1.5,1.9-6.2"/>
<path class="st7" d="M106.5,186.9"/>
<g>
	<defs>
		<path id="SVGID_25_" d="M107.8,79.1c0-7,3.5-18.9,1.6-24c-1.8-5,0-12.7-0.3-15.3c-0.4-2.5-1.9-7.6-1.9-13.3c0,0,1.6,1.6,0.3-7
			c0,0,1.6-7.2,0.3-15.3c-1.3-8,1.1-14.4,1.1-17.8s-1.5-10.9-1.5-10.9s1.9-1.5,1.9-6.2l6.6,1.1c0,0-1.7,8.1-1.3,11.1
			c0,0,1.9,2.1,1.1,12.1c0,0,1.9,0.6,0.4,10.4c-1.5,9.8,1,9.9,0.1,16.8c0,0-2.8,11.8-1.9,15c1-0.6,2.2,5.4,1.9,15.3
			c1.9,2.6-0.6,9.2-0.6,14s-0.7,14.4-0.7,14.4l-0.3-0.6c0,0-1.7,8.1-1.3,11.1c0,0,1.9,2.1,1.1,12.1c0,0,1.9,0.6,0.4,10.4
			c-1.5,9.8,1,9.9,0.1,16.8c0,0-2.8,11.8-1.9,15c1-0.6,2.2,5.4,1.9,15.3c1.9,2.6-0.6,9.2-0.6,14s-0.7,14.4-0.7,14.4l-0.3-0.2
			c0,0-1.7,8.1-1.3,11.1c0,0,1.9,2.1,1.1,12.1c0,0,1.9,0.6,0.4,10.4c-1.5,9.8,1,9.9,0.1,16.8c0,0-2.8,11.8-1.9,15
			c1-0.6,2.2,5.4,1.9,15.3c1.9,2.6-0.6,9.2-0.6,14s0.3,12.4,0.3,12.4l-8.9-0.3c0-7,4.5-16.9,2.6-22c-1.8-5,0-12.7-0.3-15.3
			c-0.4-2.5-1.9-7.6-1.9-13.3c0,0,1.6,1.6,0.3-7c0,0,1.6-7.2,0.3-15.3c-1.3-8,1.1-14.4,1.1-17.8s-1.5-10.9-1.5-10.9s1.9-1.5,1.9-6.2
			l0,0c0-7,3.5-17.9,1.6-23c-1.8-5,0-12.7-0.3-15.3c-0.4-2.5-1.9-7.6-1.9-13.3c0,0,1.6,1.6,0.3-7c0,0,1.6-7.2,0.3-15.3
			c-1.3-8,1.1-14.4,1.1-17.8S106,83.9,106,83.9s1.9-1.5,1.9-6.2"/>
	</defs>
	<clipPath id="SVGID_26_">
		<use xlink:href="#SVGID_25_"  style="overflow:visible;"/>
	</clipPath>
	<g class="st19">
		<g>
			<line class="st16" x1="87.1" y1="1.2" x2="132" y2="-18.9"/>
			<line class="st16" x1="87.1" y1="7.7" x2="131.9" y2="-12.3"/>
			<line class="st16" x1="87" y1="14.3" x2="131.9" y2="-5.8"/>
			<line class="st16" x1="87" y1="20.9" x2="131.9" y2="0.8"/>
			<line class="st16" x1="86.9" y1="27.4" x2="131.8" y2="7.4"/>
			<line class="st16" x1="86.9" y1="34" x2="131.8" y2="13.9"/>
			<line class="st16" x1="86.9" y1="40.6" x2="131.7" y2="20.5"/>
			<line class="st16" x1="86.8" y1="47.1" x2="131.7" y2="27.1"/>
			<line class="st16" x1="86.8" y1="53.7" x2="131.7" y2="33.6"/>
			<line class="st16" x1="86.8" y1="60.3" x2="131.6" y2="40.2"/>
			<line class="st16" x1="86.7" y1="66.8" x2="131.6" y2="46.8"/>
			<line class="st16" x1="86.7" y1="73.4" x2="131.5" y2="53.3"/>
			<line class="st16" x1="86.6" y1="80" x2="131.5" y2="59.9"/>
			<line class="st16" x1="86.6" y1="86.5" x2="131.5" y2="66.5"/>
			<line class="st16" x1="86.6" y1="93.1" x2="131.4" y2="73"/>
			<line class="st16" x1="86.5" y1="99.7" x2="131.4" y2="79.6"/>
			<line class="st16" x1="86.5" y1="106.2" x2="131.4" y2="86.1"/>
			<line class="st16" x1="86.4" y1="112.8" x2="131.3" y2="92.7"/>
			<line class="st16" x1="86.4" y1="119.4" x2="131.3" y2="99.3"/>
			<line class="st16" x1="86.4" y1="125.9" x2="131.2" y2="105.8"/>
			<line class="st16" x1="86.3" y1="132.5" x2="131.2" y2="112.4"/>
			<line class="st16" x1="86.3" y1="139.1" x2="131.2" y2="119"/>
			<line class="st16" x1="86.3" y1="145.6" x2="131.1" y2="125.5"/>
			<line class="st16" x1="86.2" y1="152.2" x2="131.1" y2="132.1"/>
			<line class="st16" x1="86.2" y1="158.8" x2="131" y2="138.7"/>
			<line class="st16" x1="86.1" y1="165.3" x2="131" y2="145.2"/>
			<line class="st16" x1="86.1" y1="171.9" x2="131" y2="151.8"/>
			<line class="st16" x1="86.1" y1="178.5" x2="130.9" y2="158.4"/>
			<line class="st16" x1="86" y1="185" x2="130.9" y2="164.9"/>
			<line class="st16" x1="86" y1="191.6" x2="130.9" y2="171.5"/>
			<line class="st16" x1="85.9" y1="198.2" x2="130.8" y2="178.1"/>
			<line class="st16" x1="85.9" y1="204.7" x2="130.8" y2="184.6"/>
			<line class="st16" x1="85.9" y1="211.3" x2="130.7" y2="191.2"/>
			<line class="st16" x1="85.8" y1="217.9" x2="130.7" y2="197.8"/>
			<line class="st16" x1="85.8" y1="224.4" x2="130.7" y2="204.3"/>
			<line class="st16" x1="85.8" y1="231" x2="130.6" y2="210.9"/>
			<line class="st16" x1="85.7" y1="237.6" x2="130.6" y2="217.5"/>
			<line class="st16" x1="85.7" y1="244.1" x2="130.6" y2="224"/>
			<line class="st16" x1="85.6" y1="250.7" x2="130.5" y2="230.6"/>
			<line class="st16" x1="85.6" y1="257.3" x2="130.5" y2="237.2"/>
			<line class="st16" x1="85.6" y1="263.8" x2="130.4" y2="243.7"/>
			<line class="st16" x1="85.5" y1="270.4" x2="130.4" y2="250.3"/>
			<line class="st16" x1="85.5" y1="277" x2="130.4" y2="256.9"/>
			<line class="st16" x1="85.5" y1="283.5" x2="130.3" y2="263.4"/>
			<line class="st16" x1="85.4" y1="290.1" x2="130.3" y2="270"/>
			<line class="st16" x1="85.4" y1="296.7" x2="130.2" y2="276.6"/>
			<line class="st16" x1="85.3" y1="303.2" x2="130.2" y2="283.1"/>
		</g>
	</g>
</g>
</svg>
