<?xml version="1.0" encoding="utf-8"?>
<!-- Generator: Adobe Illustrator 19.2.1, SVG Export Plug-In . SVG Version: 6.00 Build 0)  -->
<svg version="1.1" id="Layer_1" xmlns="http://www.w3.org/2000/svg" xmlns:xlink="http://www.w3.org/1999/xlink" x="0px" y="0px"
	 viewBox="0 0 512 512" style="enable-background:new 0 0 512 512;" xml:space="preserve">
<style type="text/css">
	.st0{display:none;fill:none;stroke:#5CD8AF;stroke-width:30;stroke-linecap:round;stroke-miterlimit:10;}
	.st1{display:none;}
	.st2{display:inline;fill:none;stroke:#231F20;stroke-miterlimit:10;}
	.st3{display:inline;fill:none;stroke:#000000;stroke-miterlimit:10;}
	.st4{display:inline;stroke:#000000;stroke-miterlimit:10;}
	.st5{display:inline;}
	.st6{clip-path:url(#SVGID_3_);}
	.st7{fill:none;stroke:#231F20;stroke-miterlimit:10;}
	.st8{clip-path:url(#SVGID_7_);}
	.st9{fill:none;stroke:#231F20;stroke-miterlimit:10;stroke-dasharray:2;}
	.st10{clip-path:url(#SVGID_9_);}
	.st11{clip-path:url(#SVGID_11_);}
	.st12{clip-path:url(#SVGID_13_);}
	.st13{fill:none;stroke:#000000;stroke-miterlimit:10;}
	.st14{clip-path:url(#SVGID_16_);}
	.st15{clip-path:url(#SVGID_20_);}
	.st16{fill:none;stroke:#000000;stroke-miterlimit:10;stroke-dasharray:2;}
	.st17{clip-path:url(#SVGID_23_);}
	.st18{fill:none;stroke:#FFFFFF;stroke-miterlimit:10;}
	.st19{clip-path:url(#SVGID_25_);}
</style>
<line class="st0" x1="108" y1="247" x2="375" y2="247"/>
<line class="st0" x1="246.5" y1="380.5" x2="246.5" y2="113.5"/>
<g class="st1">
	<line class="st2" x1="176.8" y1="257.1" x2="200.4" y2="300.4"/>
	<line class="st2" x1="315.6" y1="256.4" x2="291.4" y2="299.3"/>
	<line class="st2" x1="174.7" y1="298.3" x2="185.1" y2="308.7"/>
	<line class="st2" x1="318.5" y1="294.8" x2="312.8" y2="302.3"/>
	<line class="st2" x1="141.9" y1="314.3" x2="176.7" y2="332.9"/>
	<line class="st2" x1="311.5" y1="328.6" x2="347.3" y2="307.8"/>
	<line class="st2" x1="321" y1="367.6" x2="367.1" y2="368.5"/>
	<line class="st2" x1="309.8" y1="408" x2="355" y2="441"/>
	<line class="st2" x1="280.7" y1="435.3" x2="308.9" y2="490"/>
	<line class="st2" x1="210.4" y1="435.5" x2="185" y2="483.5"/>
	<line class="st2" x1="174" y1="412.5" x2="132.6" y2="439.8"/>
	<line class="st2" x1="158.8" y1="346.4" x2="173.5" y2="350"/>
	<line class="st2" x1="321" y1="344.7" x2="333.2" y2="342.8"/>
	<line class="st2" x1="322.9" y1="391" x2="341.8" y2="398.6"/>
	<line class="st2" x1="302.1" y1="430.4" x2="319" y2="443.6"/>
	<line class="st2" x1="264.6" y1="446.3" x2="271.2" y2="466.1"/>
	<line class="st2" x1="228.3" y1="449.6" x2="221.7" y2="475"/>
	<line class="st2" x1="187.2" y1="429.5" x2="173.1" y2="447.4"/>
	<line class="st2" x1="173.4" y1="393.6" x2="156.5" y2="404.9"/>
	<line class="st2" x1="169.7" y1="375.2" x2="127.9" y2="376.1"/>
	<path class="st3" d="M199.9,319c0.4,0,0.9,0,1.3,0c14.7-0.3,30.4-0.4,46.7-0.4c16,0,31.4,0.1,45.8,0.4"/>
	<path class="st3" d="M265.8,243.2l8.1,6.8c0,0,28.7,120.3,24.2,137.2s-25.1,28-39.5,28c-6.3,3.4-2.7,9.3-11.7,9.3
		s-6.3-7.6-15.3-9.3c0,0-36.8-4.2-36.8-32.2s22.4-131.3,22.4-131.3l5.4-7.6L265.8,243.2z"/>
	<polyline class="st3" points="265.8,243.2 267.6,231.5 263.1,227.5 228.6,227 223.7,229.7 222.3,246.7 	"/>
	<path class="st4" d="M263.1,227.5v-8.1c0,0-27.8-1.3-34.5,0.4v7.2"/>
	<path class="st3" d="M266.3,219.8v-17l2.7-1.3v-6.3c0,0-39.5-0.9-45.3,0l1.8,5.8h3.6l-2.7,18.8h2.2H266.3z"/>
	<path class="st3" d="M223.7,195.1l-4.5-0.4l4.5-2.2l-1.3-19.3c0,0,1.3-5.4,4.9-5.4c0-7.2,7.6-9.9,7.6-9.9c1.3-1.8,2.2-5.4,6.7-5.4
		s13.9,0,17.9,0.9c4,0.9,4,4.9,4,4.9c3.1,1.3,5.4,8.5,4.5,11.2c6.3,1.8,5.8,6.7,5.8,6.7l-2.2,14.8l2.7,3.1l-5.4,0.9L223.7,195.1
		L223.7,195.1z"/>
	<g class="st5">
		<polygon points="236.3,244 226.4,252.8 226.9,251.7 221,337.4 224,251.5 224,250.9 224.5,250.4 234.4,241.8 		"/>
	</g>
	<g class="st5">
		<polygon points="263.4,242.5 270.1,251.2 270.4,251.5 270.5,251.9 280.6,337.9 267.5,252.3 267.8,253.1 261.1,244.5 		"/>
	</g>
	<g class="st5">
		<polygon points="241.3,244.3 235.9,253 236.1,252.1 232.9,338 233.1,252.1 233.2,251.7 233.4,251.3 238.8,242.6 		"/>
	</g>
	<g class="st5">
		<path d="M247.3,243.5c-0.3,1.5-0.5,2.9-0.8,4.4s-0.6,2.9-1,4.4V252l-0.7,42.9l-0.4,21.5l-0.4,21.5l-0.4-21.5l-0.4-21.5l-0.7-42.9
			v-0.1v-0.2c0.3-1.5,0.5-2.9,0.8-4.4s0.6-2.9,1-4.4L247.3,243.5z"/>
	</g>
	<g class="st5">
		<path d="M252.5,242.7c0.5,1.7,1,3.2,1.4,4.9s0.9,3.3,1.3,4.9l0.1,0.2v0.2l0.6,41.9l0.3,20.9l0.2,20.9l-1.1-20.9l-1-20.9l-2.1-41.8
			l0.1,0.4c-0.5-1.7-1-3.2-1.4-4.9c-0.5-1.7-0.9-3.2-1.3-4.9L252.5,242.7z"/>
	</g>
	<g class="st5">
		<polygon points="259.4,243.1 262.9,251.8 263.1,252 263.1,252.3 267.9,339.1 260.1,252.5 260.2,253.1 256.6,244.4 		"/>
	</g>
	<g class="st5">
		<path d="M220.3,342.5c0.2,1.6,0.3,3.3,0.4,4.9l0.3,4.9c0.2,3.3,0.3,6.5,0.3,9.8l0.1,4.9c0,1.6,0,3.3,0,4.9v4.9v1.2v1.2
			c0,0.8,0,1.7,0.1,2.4c0.1,1.5,0.4,3,0.8,4.5c0.4,1.5,0.9,2.9,1.7,4.3l0.5,1c0.2,0.3,0.4,0.6,0.6,1l0.7,1l0.7,0.9
			c0.3,0.3,0.5,0.6,0.7,0.9l0.8,0.9c0.5,0.6,1.1,1.1,1.7,1.7c0.6,0.5,1.2,1.1,1.8,1.6s1.2,1,1.9,1.5c1.3,1,2.6,1.9,3.9,2.9l8.1,5.6
			l0,0l0,0c1.7-0.3,3.4-0.9,5-1.5s3.2-1.3,4.8-2.1c1.6-0.8,3-1.7,4.5-2.7c1.4-1,2.8-2.1,4-3.2c1.2-1.2,2.4-2.4,3.4-3.8
			s1.9-2.8,2.6-4.3s1.3-3.1,1.6-4.7c0.2-0.8,0.3-1.6,0.5-2.4c0.1-0.8,0.2-1.6,0.2-2.5c0-1.6,0-3.4-0.1-5.1l-0.1-5.2
			c0-3.5-0.1-7-0.1-10.5s0-7,0-10.5c0.1-3.5,0.1-7,0.3-10.5h1.5c0.3,3.5,0.4,7,0.6,10.4c0.2,3.5,0.3,7,0.4,10.4
			c0.1,3.5,0.2,7,0.3,10.5l0.1,5.2c0,1.7,0.1,3.5,0,5.3s-0.4,3.7-1,5.4c-0.5,1.8-1.3,3.5-2.2,5c-0.9,1.6-2,3-3.3,4.3
			c-1.2,1.3-2.6,2.5-4,3.6c-2.8,2.2-5.9,3.8-9.1,5.3c-3.2,1.4-6.5,2.6-9.9,3.4l0,0l0,0l0,0c-1.5-0.7-3-1.4-4.4-2.1
			c-1.5-0.7-2.9-1.5-4.4-2.3c-1.4-0.8-2.9-1.6-4.3-2.5c-0.7-0.4-1.4-0.9-2.1-1.4c-0.7-0.5-1.4-1-2-1.5c-0.7-0.5-1.3-1-1.9-1.6
			l-0.9-0.9c-0.3-0.3-0.6-0.6-0.9-0.9l-0.9-1l-0.8-1c-0.3-0.4-0.5-0.7-0.8-1.1l-0.7-1.1c-0.5-0.7-0.8-1.5-1.2-2.3s-0.6-1.6-0.9-2.5
			c-0.5-1.7-0.8-3.4-0.9-5.1c-0.1-0.9-0.1-1.7-0.1-2.5c0-0.4,0-0.8,0-1.3v-1.2l0.1-4.9c0-1.6,0.1-3.3,0.1-4.9l0.2-4.9
			c0.2-3.3,0.3-6.5,0.6-9.8l0.4-4.9C219.9,345.8,220.1,344.2,220.3,342.5z"/>
	</g>
	<g class="st5">
		<g>
			<g>
				<g>
					<defs>
						<path id="SVGID_1_" d="M223.7,195.1l-4.5-0.4l4.5-2.2l-1.3-19.3c0,0,1.3-5.4,4.9-5.4c0-7.2,7.6-9.9,7.6-9.9
							c1.3-1.8,2.2-5.4,6.7-5.4s13.9,0,17.9,0.9c4,0.9,4,4.9,4,4.9c3.1,1.3,5.4,8.5,4.5,11.2c6.3,1.8,5.8,6.7,5.8,6.7l-2.2,14.8
							l2.7,3.1l-5.4,0.9L223.7,195.1L223.7,195.1z"/>
					</defs>
					<clipPath id="SVGID_3_">
						<use xlink:href="#SVGID_1_"  style="overflow:visible;"/>
					</clipPath>
					<g class="st6">
						<line class="st7" x1="228.5" y1="150.6" x2="291.7" y2="122.3"/>
						<line class="st7" x1="226.5" y1="157.7" x2="289.7" y2="129.4"/>
						<line class="st7" x1="224.4" y1="164.8" x2="287.6" y2="136.5"/>
						<line class="st7" x1="222.4" y1="171.9" x2="285.6" y2="143.6"/>
						<line class="st7" x1="220.4" y1="179" x2="283.6" y2="150.7"/>
						<line class="st7" x1="218.4" y1="186.1" x2="281.6" y2="157.7"/>
						<line class="st7" x1="216.4" y1="193.2" x2="279.6" y2="164.8"/>
						<line class="st7" x1="214.3" y1="200.3" x2="277.5" y2="171.9"/>
						<line class="st7" x1="212.3" y1="207.3" x2="275.5" y2="179"/>
						<line class="st7" x1="210.3" y1="214.4" x2="273.5" y2="186.1"/>
						<line class="st7" x1="208.3" y1="221.5" x2="271.5" y2="193.2"/>
						<line class="st7" x1="206.3" y1="228.6" x2="269.5" y2="200.3"/>
					</g>
				</g>
			</g>
		</g>
	</g>
	<g class="st5">
		<g>
			<g>
				<g>
					<defs>
						<path id="SVGID_5_" d="M266.3,219.8v-17l2.7-1.3v-6.3c0,0-39.5-0.9-45.3,0l1.8,5.8h3.6l-2.7,18.8h2.2H266.3z"/>
					</defs>
					<clipPath id="SVGID_7_">
						<use xlink:href="#SVGID_5_"  style="overflow:visible;"/>
					</clipPath>
					<g class="st8">
						<line class="st9" x1="206.3" y1="224.8" x2="239.9" y2="174.7"/>
						<line class="st9" x1="210.3" y1="226.7" x2="243.9" y2="176.6"/>
						<line class="st9" x1="214.3" y1="228.6" x2="248" y2="178.5"/>
						<line class="st9" x1="218.3" y1="230.6" x2="252" y2="180.5"/>
						<line class="st9" x1="222.3" y1="232.5" x2="256" y2="182.4"/>
						<line class="st9" x1="226.3" y1="234.4" x2="260" y2="184.3"/>
						<line class="st9" x1="230.3" y1="236.4" x2="264" y2="186.3"/>
						<line class="st9" x1="234.3" y1="238.3" x2="268" y2="188.2"/>
						<line class="st9" x1="238.3" y1="240.2" x2="272" y2="190.1"/>
						<line class="st9" x1="242.3" y1="242.2" x2="276" y2="192.1"/>
						<line class="st9" x1="246.4" y1="244.1" x2="280" y2="194"/>
					</g>
				</g>
			</g>
		</g>
	</g>
	<g class="st5">
		<g>
			<g>
				<g>
					<defs>
						<polyline id="SVGID_8_" points="265.5,242.9 267.3,231.2 262.8,227.2 228.3,226.7 223.4,229.4 222,246.4 						"/>
					</defs>
					<clipPath id="SVGID_9_">
						<use xlink:href="#SVGID_8_"  style="overflow:visible;"/>
					</clipPath>
					<g class="st10">
						<line class="st7" x1="221.2" y1="225.3" x2="269.8" y2="225.3"/>
						<line class="st7" x1="221.2" y1="228" x2="269.8" y2="228"/>
						<line class="st7" x1="221.2" y1="230.7" x2="269.8" y2="230.7"/>
						<line class="st7" x1="221.2" y1="233.5" x2="269.8" y2="233.5"/>
						<line class="st7" x1="221.2" y1="236.2" x2="269.8" y2="236.2"/>
						<line class="st7" x1="221.2" y1="238.9" x2="269.8" y2="238.9"/>
						<line class="st7" x1="221.2" y1="241.7" x2="269.8" y2="241.7"/>
						<line class="st7" x1="221.2" y1="244.4" x2="269.8" y2="244.4"/>
						<line class="st7" x1="221.2" y1="247.1" x2="269.8" y2="247.1"/>
					</g>
				</g>
			</g>
		</g>
	</g>
	<path class="st3" d="M255.6,115.5c0.4-13.9-1.3-22.4-2.7-21.5c-1.3-4.5,2.7-21.1,2.7-21.1c1.3-9.8-2.2-9.9-0.1-23.7
		c2.1-13.8-0.6-14.7-0.6-14.7c1.2-14.1-1.5-17-1.5-17c-0.6-4.2,1.8-15.6,1.8-15.6l-9.3-1.5c0,6.6-2.7,8.7-2.7,8.7s2.1,10.5,2.1,15.3
		s-3.3,13.8-1.5,25.1c1.8,11.4-0.4,21.6-0.4,21.6c1.8,12.1-0.4,9.9-0.4,9.9c0,8.1,2.2,15.3,2.7,18.8c0.4,3.6-2.2,14.4,0.4,21.5
		c2.7,7.2-3.6,21.1-3.6,31l12.6,0.4c0,0-0.4-10.8-0.4-17.5S258.3,119.1,255.6,115.5z"/>
	<g class="st5">
		<g>
			<g>
				<g>
					<defs>
						<path id="SVGID_10_" d="M255.6,115.8c0.4-13.9-1.3-22.4-2.7-21.5c-1.3-4.5,2.7-21.1,2.7-21.1c1.3-9.8-2.2-9.9-0.1-23.7
							c2.1-13.8-0.6-14.7-0.6-14.7c1.2-14.1-1.5-17-1.5-17c-0.6-4.2,1.8-15.6,1.8-15.6l-9.3-1.5c0,6.6-2.7,8.7-2.7,8.7
							s2.1,10.5,2.1,15.3s-3.3,13.8-1.5,25.1c1.8,11.4-0.4,21.6-0.4,21.6c1.8,12.1-0.4,9.9-0.4,9.9c0,8.1,2.2,15.3,2.7,18.8
							c0.4,3.6-2.2,14.4,0.4,21.5c2.7,7.2-3.6,21.1-3.6,31l12.6,0.4c0,0-0.4-10.8-0.4-17.5C254.7,128.8,258.3,119.4,255.6,115.8z"/>
					</defs>
					<clipPath id="SVGID_11_">
						<use xlink:href="#SVGID_10_"  style="overflow:visible;"/>
					</clipPath>
					<g class="st11">
						<g>
							<line class="st9" x1="229.7" y1="76.6" x2="257.7" y2="61.5"/>
							<line class="st9" x1="230.4" y1="81.9" x2="258.6" y2="66.5"/>
							<line class="st9" x1="231" y1="87.1" x2="259.4" y2="71.5"/>
							<line class="st9" x1="231.7" y1="92.4" x2="260.3" y2="76.5"/>
							<line class="st9" x1="232.4" y1="97.7" x2="261.2" y2="81.5"/>
							<line class="st9" x1="233" y1="103" x2="262" y2="86.5"/>
							<line class="st9" x1="233.7" y1="108.2" x2="262.9" y2="91.5"/>
							<line class="st9" x1="234.4" y1="113.5" x2="263.7" y2="96.5"/>
							<line class="st9" x1="235.1" y1="118.8" x2="264.6" y2="101.4"/>
							<line class="st9" x1="235.7" y1="124" x2="265.4" y2="106.4"/>
							<line class="st9" x1="236.4" y1="129.3" x2="266.3" y2="111.4"/>
							<line class="st9" x1="237.1" y1="134.6" x2="267.2" y2="116.4"/>
							<line class="st9" x1="237.7" y1="139.9" x2="268" y2="121.4"/>
							<line class="st9" x1="238.4" y1="145.1" x2="268.9" y2="126.4"/>
							<line class="st9" x1="239.1" y1="150.4" x2="269.7" y2="131.4"/>
							<line class="st9" x1="239.8" y1="155.7" x2="270.6" y2="136.4"/>
							<line class="st9" x1="240.4" y1="161" x2="271.4" y2="141.4"/>
						</g>
					</g>
				</g>
			</g>
		</g>
		<g>
			<g>
				<g>
					<defs>
						<path id="SVGID_12_" d="M255.6,115.8c0.4-13.9-1.3-22.4-2.7-21.5c-1.3-4.5,2.7-21.1,2.7-21.1c1.3-9.8-2.2-9.9-0.1-23.7
							c2.1-13.8-0.6-14.7-0.6-14.7c1.2-14.1-1.5-17-1.5-17c-0.6-4.2,1.8-15.6,1.8-15.6l-9.3-1.5c0,6.6-2.7,8.7-2.7,8.7
							s2.1,10.5,2.1,15.3s-3.3,13.8-1.5,25.1c1.8,11.4-0.4,21.6-0.4,21.6c1.8,12.1-0.4,9.9-0.4,9.9c0,8.1,2.2,15.3,2.7,18.8
							c0.4,3.6-2.2,14.4,0.4,21.5c2.7,7.2-3.6,21.1-3.6,31l12.6,0.4c0,0-0.4-10.8-0.4-17.5C254.7,128.8,258.3,119.4,255.6,115.8z"/>
					</defs>
					<clipPath id="SVGID_13_">
						<use xlink:href="#SVGID_12_"  style="overflow:visible;"/>
					</clipPath>
					<g class="st12">
						<line class="st9" x1="224.6" y1="-13.7" x2="252.6" y2="-28.8"/>
						<line class="st9" x1="225.3" y1="-8.5" x2="253.5" y2="-23.8"/>
						<line class="st9" x1="225.9" y1="-3.2" x2="254.4" y2="-18.9"/>
						<line class="st9" x1="226.6" y1="2.1" x2="255.2" y2="-13.9"/>
						<line class="st9" x1="227.3" y1="7.3" x2="256.1" y2="-8.9"/>
						<line class="st9" x1="228" y1="12.6" x2="256.9" y2="-3.9"/>
						<line class="st9" x1="228.6" y1="17.9" x2="257.8" y2="1.1"/>
						<line class="st9" x1="229.3" y1="23.2" x2="258.6" y2="6.1"/>
						<line class="st9" x1="230" y1="28.4" x2="259.5" y2="11.1"/>
						<line class="st9" x1="230.6" y1="33.7" x2="260.4" y2="16.1"/>
						<line class="st9" x1="231.3" y1="39" x2="261.2" y2="21.1"/>
						<line class="st9" x1="232" y1="44.3" x2="262.1" y2="26.1"/>
						<line class="st9" x1="232.7" y1="49.5" x2="262.9" y2="31.1"/>
						<line class="st9" x1="233.3" y1="54.8" x2="263.8" y2="36.1"/>
						<line class="st9" x1="234" y1="60.1" x2="264.6" y2="41.1"/>
						<line class="st9" x1="234.7" y1="65.4" x2="265.5" y2="46.1"/>
						<line class="st9" x1="235.4" y1="70.6" x2="266.4" y2="51.1"/>
					</g>
				</g>
			</g>
		</g>
	</g>
</g>
<g>
	<line class="st13" x1="177.1" y1="259.4" x2="200.5" y2="302.5"/>
	<line class="st13" x1="314.8" y1="258.7" x2="290.9" y2="301.3"/>
	<line class="st13" x1="175" y1="300.4" x2="185.4" y2="310.7"/>
	<line class="st13" x1="317.8" y1="296.9" x2="312" y2="304.3"/>
	<line class="st13" x1="142.4" y1="316.2" x2="177" y2="334.6"/>
	<line class="st13" x1="310.8" y1="330.4" x2="346.3" y2="309.7"/>
	<line class="st13" x1="320.3" y1="369.1" x2="366" y2="370"/>
	<line class="st13" x1="309.1" y1="409.3" x2="354" y2="442"/>
	<line class="st13" x1="280.3" y1="436.3" x2="308.2" y2="490.6"/>
	<line class="st13" x1="210.4" y1="436.5" x2="185.2" y2="484.2"/>
	<line class="st13" x1="174.3" y1="413.7" x2="133.2" y2="440.7"/>
	<line class="st13" x1="159.2" y1="348" x2="173.9" y2="351.7"/>
	<line class="st13" x1="320.3" y1="346.4" x2="332.3" y2="344.5"/>
	<line class="st13" x1="322.1" y1="392.4" x2="340.8" y2="399.9"/>
	<line class="st13" x1="301.5" y1="431.5" x2="318.3" y2="444.5"/>
	<line class="st13" x1="264.2" y1="447.3" x2="270.8" y2="466.9"/>
	<line class="st13" x1="228.3" y1="450.5" x2="221.7" y2="475.7"/>
	<line class="st13" x1="187.5" y1="430.5" x2="173.5" y2="448.3"/>
	<line class="st13" x1="173.8" y1="394.9" x2="157" y2="406.2"/>
	<line class="st13" x1="170.1" y1="372.5" x2="128.6" y2="373.3"/>
	<path class="st13" d="M200,320.9c0.4,0,0.8,0,1.3,0c14.5-0.3,30.2-0.4,46.4-0.4c15.9,0,31.2,0.1,45.4,0.4"/>
	<path class="st13" d="M265.5,245.7l8.1,6.7c0,0,28.5,119.4,24,136.2s-24.9,27.8-39.1,27.8c-6.3,3.4-2.7,9.2-11.6,9.2
		s-6.3-7.5-15.2-9.2c0,0-36.5-4.2-36.5-32s22.2-130.3,22.2-130.3l5.3-7.5L265.5,245.7z"/>
	<polyline class="st13" points="265.5,245.7 267.3,234.1 262.8,230 228.6,229.6 223.7,232.3 222.3,249.1 	"/>
	<path class="st13" d="M262.8,230v-8.1c0,0-27.5-1.3-34.3,0.4v7.1"/>
	<path class="st13" d="M265.9,222.3v-16.9l2.7-1.3v-6.3c0,0-39.1-0.8-45,0l1.8,5.7h3.6l-2.7,18.6h2.2h37.3L265.9,222.3L265.9,222.3z
		"/>
	<path class="st13" d="M223.7,197.9l-4.5-0.4l4.5-2.2l-1.3-19.2c0,0,1.3-5.3,4.9-5.3c0-7.1,7.5-9.8,7.5-9.8c1.3-1.8,2.2-5.3,6.7-5.3
		s13.8,0,17.8,0.8c3.9,0.8,3.9,4.9,3.9,4.9c3.1,1.3,5.3,8.4,4.5,11.2c6.3,1.8,5.7,6.7,5.7,6.7l-2.2,14.7l2.7,3.1l-5.3,0.8H223.7
		L223.7,197.9z"/>
	<g>
		<polygon points="233.7,246.1 223.7,254.8 224.2,253.7 218.2,339.2 221.3,253.5 221.3,252.8 221.7,252.4 231.8,243.7 		"/>
	</g>
	<g>
		<polygon points="261.3,244.4 268.1,253.2 268.4,253.5 268.4,253.9 278.7,339.6 265.5,254.4 265.7,255.1 258.9,246.5 		"/>
	</g>
	<g>
		<polygon points="238.8,246.3 233.3,254.9 233.4,254.1 230.2,339.6 230.5,254.1 230.5,253.7 230.8,253.2 236.2,244.6 		"/>
	</g>
	<g>
		<path d="M244.9,245.6c-0.3,1.4-0.6,2.9-0.8,4.3s-0.6,2.9-1,4.3v-0.3l-0.7,42.8l-0.4,21.4l-0.4,21.4l-0.4-21.4l-0.4-21.4l-0.7-42.8
			v-0.1v-0.1c0.3-1.4,0.6-2.9,0.8-4.3c0.3-1.4,0.6-2.9,1-4.3L244.9,245.6z"/>
	</g>
	<g>
		<path d="M250.2,244.7c0.6,1.7,1,3.2,1.4,4.9s1,3.4,1.3,4.9l0.1,0.1v0.1l0.6,41.8l0.3,20.8l0.1,20.8l-1.1-20.8l-1-20.8l-2.1-41.7
			l0.1,0.4c-0.6-1.7-1-3.2-1.4-4.9c-0.6-1.7-1-3.2-1.3-4.9L250.2,244.7z"/>
	</g>
	<g>
		<polygon points="257.2,245.1 260.7,253.8 261,253.9 261,254.4 265.9,340.8 257.9,254.5 258.1,255.1 254.3,246.4 		"/>
	</g>
	<g>
		<path d="M220.3,344.3c0.1,1.5,0.3,3.2,0.4,4.9l0.3,4.9c0.1,3.2,0.3,6.4,0.3,9.8l0.1,4.9c0,1.5,0,3.2,0,4.9v4.9v1.3v1.3
			c0,0.8,0,1.7,0.1,2.4c0.1,1.5,0.4,2.9,0.8,4.5c0.4,1.5,0.8,2.9,1.7,4.3l0.6,1c0.1,0.3,0.4,0.6,0.6,1l0.7,1l0.7,0.8
			c0.3,0.3,0.6,0.6,0.7,0.8l0.8,0.8c0.6,0.6,1.1,1.1,1.7,1.7c0.6,0.6,1.3,1.1,1.8,1.5c0.6,0.6,1.3,1,1.8,1.5c1.3,1,2.5,1.8,3.9,2.9
			l8.1,5.6l0,0l0,0c1.7-0.3,3.4-0.8,4.9-1.5s3.2-1.3,4.8-2.1c1.5-0.8,2.9-1.7,4.5-2.7c1.4-1,2.8-2.1,3.9-3.2
			c1.3-1.3,2.4-2.4,3.4-3.8s1.8-2.8,2.5-4.3s1.3-3.1,1.5-4.6c0.1-0.8,0.3-1.5,0.6-2.4c0.1-0.8,0.1-1.5,0.1-2.5c0-1.5,0-3.4-0.1-5
			l-0.1-5.2c0-3.5-0.1-7-0.1-10.5s0-7,0-10.5c0.1-3.5,0.1-7,0.3-10.5h1.5c0.3,3.5,0.4,7,0.6,10.3c0.1,3.5,0.3,7,0.4,10.3
			c0.1,3.5,0.1,7,0.3,10.5l0.1,5.2c0,1.7,0.1,3.5,0,5.3s-0.4,3.6-1,5.3c-0.6,1.8-1.3,3.5-2.2,4.9c-0.8,1.5-2,2.9-3.2,4.3
			c-1.3,1.3-2.5,2.5-3.9,3.6c-2.8,2.2-5.9,3.8-9.1,5.3c-3.2,1.4-6.4,2.5-9.8,3.4l0,0l0,0l0,0c-1.5-0.7-2.9-1.4-4.3-2.1
			c-1.5-0.7-2.9-1.5-4.3-2.2c-1.4-0.8-2.9-1.5-4.3-2.5c-0.7-0.4-1.4-0.8-2.1-1.4c-0.7-0.6-1.4-1-2-1.5c-0.7-0.6-1.3-1-1.8-1.5
			l-0.8-0.8c-0.3-0.3-0.6-0.6-0.8-0.8l-0.8-1l-0.8-1c-0.3-0.4-0.6-0.7-0.8-1.1l-0.7-1.1c-0.6-0.7-0.8-1.5-1.3-2.2
			c-0.4-0.7-0.6-1.5-0.8-2.5c-0.6-1.7-0.8-3.4-0.8-5c-0.1-0.8-0.1-1.7-0.1-2.5c0-0.4,0-0.8,0-1.3v-1.3l0.1-4.9
			c0-1.5,0.1-3.2,0.1-4.9l0.1-4.9c0.1-3.2,0.3-6.4,0.6-9.8l0.4-4.9C219.9,347.5,220,345.9,220.3,344.3z"/>
	</g>
	<g>
		<g>
			<g>
				<g>
					<g>
						<defs>
							<path id="SVGID_14_" d="M223.7,197.9l-4.5-0.4l4.5-2.2l-1.3-19.2c0,0,1.3-5.3,4.9-5.3c0-7.1,7.5-9.8,7.5-9.8
								c1.3-1.8,2.2-5.3,6.7-5.3s13.8,0,17.8,0.8c3.9,0.8,3.9,4.9,3.9,4.9c3.1,1.3,5.3,8.4,4.5,11.2c6.3,1.8,5.7,6.7,5.7,6.7
								l-2.2,14.7l2.7,3.1l-5.3,0.8H223.7L223.7,197.9z"/>
						</defs>
						<clipPath id="SVGID_16_">
							<use xlink:href="#SVGID_14_"  style="overflow:visible;"/>
						</clipPath>
						<g class="st14">
							<line class="st13" x1="228.4" y1="153.7" x2="291.2" y2="125.6"/>
							<line class="st13" x1="226.5" y1="160.8" x2="289.1" y2="132.7"/>
							<line class="st13" x1="224.4" y1="167.8" x2="287.1" y2="139.7"/>
							<line class="st13" x1="222.4" y1="174.8" x2="285" y2="146.7"/>
							<line class="st13" x1="220.3" y1="181.9" x2="283.1" y2="153.8"/>
							<line class="st13" x1="218.4" y1="188.9" x2="281.1" y2="160.8"/>
							<line class="st13" x1="216.4" y1="196.1" x2="279.2" y2="167.8"/>
							<line class="st13" x1="214.3" y1="203.1" x2="277.1" y2="174.8"/>
							<line class="st13" x1="212.3" y1="210" x2="275.1" y2="181.9"/>
							<line class="st13" x1="210.4" y1="217" x2="273" y2="188.9"/>
							<line class="st13" x1="208.4" y1="224.2" x2="271.1" y2="196.1"/>
							<line class="st13" x1="206.3" y1="231.2" x2="269.1" y2="203.1"/>
						</g>
					</g>
					<g>
						<path id="SVGID_15_" class="st13" d="M223.7,197.9l-4.5-0.4l4.5-2.2l-1.3-19.2c0,0,1.3-5.3,4.9-5.3c0-7.1,7.5-9.8,7.5-9.8
							c1.3-1.8,2.2-5.3,6.7-5.3s13.8,0,17.8,0.8c3.9,0.8,3.9,4.9,3.9,4.9c3.1,1.3,5.3,8.4,4.5,11.2c6.3,1.8,5.7,6.7,5.7,6.7
							l-2.2,14.7l2.7,3.1l-5.3,0.8H223.7L223.7,197.9z"/>
					</g>
				</g>
			</g>
			<g>
				<path id="SVGID_6_" class="st13" d="M223.7,197.9l-4.5-0.4l4.5-2.2l-1.3-19.2c0,0,1.3-5.3,4.9-5.3c0-7.1,7.5-9.8,7.5-9.8
					c1.3-1.8,2.2-5.3,6.7-5.3s13.8,0,17.8,0.8c3.9,0.8,3.9,4.9,3.9,4.9c3.1,1.3,5.3,8.4,4.5,11.2c6.3,1.8,5.7,6.7,5.7,6.7l-2.2,14.7
					l2.7,3.1l-5.3,0.8H223.7L223.7,197.9z"/>
			</g>
		</g>
	</g>
	<g>
		<g>
			<g>
				<g>
					<g>
						<defs>
							<path id="SVGID_18_" d="M265.9,222.3v-16.9l2.7-1.3v-6.3c0,0-39.1-0.8-45,0l1.8,5.7h3.6l-2.7,18.6h2.2h37.3L265.9,222.3
								L265.9,222.3z"/>
						</defs>
						<clipPath id="SVGID_20_">
							<use xlink:href="#SVGID_18_"  style="overflow:visible;"/>
						</clipPath>
						<g class="st15">
							<line class="st16" x1="206.3" y1="227.4" x2="239.7" y2="177.6"/>
							<line class="st16" x1="210.4" y1="229.2" x2="243.7" y2="179.6"/>
							<line class="st16" x1="214.3" y1="231.2" x2="247.7" y2="181.4"/>
							<line class="st16" x1="218.4" y1="233.1" x2="251.8" y2="183.3"/>
							<line class="st16" x1="222.3" y1="235.1" x2="255.7" y2="185.3"/>
							<line class="st16" x1="226.2" y1="236.9" x2="259.7" y2="187.1"/>
							<line class="st16" x1="230.2" y1="238.8" x2="263.6" y2="189.2"/>
							<line class="st16" x1="234.1" y1="240.8" x2="267.6" y2="191"/>
							<line class="st16" x1="238.2" y1="242.6" x2="271.6" y2="193"/>
							<line class="st16" x1="242.1" y1="244.6" x2="275.5" y2="194.9"/>
							<line class="st16" x1="246.2" y1="246.5" x2="279.6" y2="196.8"/>
						</g>
					</g>
					<g>
						<path id="SVGID_17_" class="st13" d="M265.9,222.3v-16.9l2.7-1.3v-6.3c0,0-39.1-0.8-45,0l1.8,5.7h3.6l-2.7,18.6h2.2h37.3
							L265.9,222.3L265.9,222.3z"/>
					</g>
				</g>
			</g>
			<g>
				<path id="SVGID_4_" class="st13" d="M265.9,222.3v-16.9l2.7-1.3v-6.3c0,0-39.1-0.8-45,0l1.8,5.7h3.6l-2.7,18.6h2.2h37.3
					L265.9,222.3L265.9,222.3z"/>
			</g>
		</g>
	</g>
	<g>
		<g>
			<g>
				<g>
					<g>
						<defs>
							<polyline id="SVGID_22_" points="265.2,245.3 266.9,233.7 262.5,229.8 228.3,229.2 223.4,232 222,248.8 							"/>
						</defs>
						<clipPath id="SVGID_23_">
							<use xlink:href="#SVGID_22_"  style="overflow:visible;"/>
						</clipPath>
						<g class="st17">
							<line class="st13" x1="221.1" y1="227.9" x2="269.4" y2="227.9"/>
							<line class="st13" x1="221.1" y1="230.6" x2="269.4" y2="230.6"/>
							<line class="st13" x1="221.1" y1="233.3" x2="269.4" y2="233.3"/>
							<line class="st13" x1="221.1" y1="236" x2="269.4" y2="236"/>
							<line class="st13" x1="221.1" y1="238.7" x2="269.4" y2="238.7"/>
							<line class="st13" x1="221.1" y1="241.4" x2="269.4" y2="241.4"/>
							<line class="st13" x1="221.1" y1="244.2" x2="269.4" y2="244.2"/>
							<line class="st13" x1="221.1" y1="246.8" x2="269.4" y2="246.8"/>
							<line class="st13" x1="221.1" y1="249.5" x2="269.4" y2="249.5"/>
						</g>
					</g>
					<g>
						<polyline id="SVGID_19_" class="st13" points="265.2,245.3 266.9,233.7 262.5,229.8 228.3,229.2 223.4,232 222,248.8 						
							"/>
					</g>
				</g>
			</g>
			<g>
				<polyline id="SVGID_2_" class="st13" points="265.2,245.3 266.9,233.7 262.5,229.8 228.3,229.2 223.4,232 222,248.8 				"/>
			</g>
		</g>
	</g>
	<path class="st18" d="M245.8,4.7"/>
	<path class="st18" d="M247.7-147.6"/>
	<path class="st18" d="M247.6-145.6c0-9.8,4.9-26.4,2.2-33.6c-2.5-7,0-17.8-0.4-21.4c-0.6-3.5-2.7-10.6-2.7-18.6
		c0,0,2.2,2.2,0.4-9.8c0,0,2.2-10.1,0.4-21.4c-1.8-11.2,1.5-20.1,1.5-24.9c0-4.8-2.1-15.2-2.1-15.2s2.7-2.1,2.7-8.7l9.2,1.5
		c0,0-2.4,11.3-1.8,15.5c0,0,2.7,2.9,1.5,16.9c0,0,2.7,0.8,0.6,14.5c-2.1,13.7,1.4,13.8,0.1,23.5c0,0-3.9,16.5-2.7,21
		c1.4-0.8,3.1,7.5,2.7,21.4c2.7,3.6-0.8,12.9-0.8,19.6s-1,20.1-1,20.1L257-146c0,0-2.4,11.3-1.8,15.5c0,0,2.7,2.9,1.5,16.9
		c0,0,2.7,0.8,0.6,14.5s1.4,13.8,0.1,23.5c0,0-3.9,16.5-2.7,21c1.4-0.8,3.1,7.5,2.7,21.4c2.7,3.6-0.8,12.9-0.8,19.6s-1,20.1-1,20.1
		l-0.4-0.3c0,0-2.4,11.3-1.8,15.5c0,0,2.7,2.9,1.5,16.9c0,0,2.7,0.8,0.6,14.5c-2.1,13.7,1.4,13.8,0.1,23.5c0,0-3.9,16.5-2.7,21
		c1.4-0.8,3.1,7.5,2.7,21.4c2.7,3.6-0.8,12.9-0.8,19.6s0,17.1,0,17.1l-12.4-0.4c0-9.8,6.3-23.6,3.6-30.8c-2.5-7,0-17.8-0.4-21.4
		c-0.6-3.5-2.7-10.6-2.7-18.6c0,0,2.2,2.2,0.4-9.8c0,0,2.2-10.1,0.4-21.4c-1.8-11.2,1.5-20.1,1.5-24.9s-2.1-15.2-2.1-15.2
		s2.7-2.1,2.7-8.7l0,0c0-9.8,4.9-25,2.2-32.2c-2.5-7,0-17.8-0.4-21.4c-0.6-3.5-2.7-10.6-2.7-18.6c0,0,2.2,2.2,0.4-9.8
		c0,0,2.2-10.1,0.4-21.4c-1.8-11.2,1.5-20.1,1.5-24.9c0-4.8-2.4-15.4-2.4-15.4s2.7-2.1,2.7-8.7"/>
	<path class="st18" d="M245.8,4.7"/>
	<g>
		<g>
			<g>
				<defs>
					<path id="SVGID_24_" d="M247.6-146c0-9.8,4.9-26.4,2.2-33.6c-2.5-7,0-17.8-0.4-21.4c-0.6-3.5-2.7-10.6-2.7-18.6
						c0,0,2.2,2.2,0.4-9.8c0,0,2.2-10.1,0.4-21.4c-1.8-11.2,1.5-20.1,1.5-24.9c0-4.8-2.1-15.2-2.1-15.2s2.7-2.1,2.7-8.7l9.2,1.5
						c0,0-2.4,11.3-1.8,15.5c0,0,2.7,2.9,1.5,16.9c0,0,2.7,0.8,0.6,14.5c-2.1,13.7,1.4,13.8,0.1,23.5c0,0-3.9,16.5-2.7,21
						c1.4-0.8,3.1,7.5,2.7,21.4c2.7,3.6-0.8,12.9-0.8,19.6c0,6.7-1,20.1-1,20.1l-0.4-0.8c0,0-2.4,11.3-1.8,15.5
						c0,0,2.7,2.9,1.5,16.9c0,0,2.7,0.8,0.6,14.5s1.4,13.8,0.1,23.5c0,0-3.9,16.5-2.7,21c1.4-0.8,3.1,7.5,2.7,21.4
						c2.7,3.6-0.8,12.9-0.8,19.6s-1,20.1-1,20.1l-0.4-0.3c0,0-2.4,11.3-1.8,15.5c0,0,2.7,2.9,1.5,16.9c0,0,2.7,0.8,0.6,14.5
						c-2.1,13.7,1.4,13.8,0.1,23.5c0,0-3.9,16.5-2.7,21c1.4-0.8,3.1,7.5,2.7,21.4c2.7,3.6-0.8,12.9-0.8,19.6s0.4,17.3,0.4,17.3
						l-12.4-0.4c0-9.8,6.3-23.6,3.6-30.8c-2.5-7,0-17.8-0.4-21.4c-0.6-3.5-2.7-10.6-2.7-18.6c0,0,2.2,2.2,0.4-9.8
						c0,0,2.2-10.1,0.4-21.4c-1.8-11.2,1.5-20.1,1.5-24.9S243.5,13,243.5,13s2.7-2.1,2.7-8.7l0,0c0-9.8,4.9-25,2.2-32.2
						c-2.5-7,0-17.8-0.4-21.4c-0.6-3.5-2.7-10.6-2.7-18.6c0,0,2.2,2.2,0.4-9.8c0,0,2.2-10.1,0.4-21.4c-1.8-11.2,1.5-20.1,1.5-24.9
						c0-4.8-2.8-15.7-2.8-15.7s2.7-2.1,2.7-8.7"/>
				</defs>
				<clipPath id="SVGID_25_">
					<use xlink:href="#SVGID_24_"  style="overflow:visible;"/>
				</clipPath>
				<g class="st19">
					<g>
						<line class="st13" x1="218.6" y1="-255" x2="281.4" y2="-283.1"/>
						<line class="st13" x1="218.6" y1="-245.9" x2="281.3" y2="-273.8"/>
						<line class="st13" x1="218.5" y1="-236.6" x2="281.3" y2="-264.7"/>
						<line class="st13" x1="218.5" y1="-227.4" x2="281.3" y2="-255.5"/>
						<line class="st13" x1="218.4" y1="-218.3" x2="281.1" y2="-246.3"/>
						<line class="st13" x1="218.4" y1="-209.1" x2="281.1" y2="-237.2"/>
						<line class="st13" x1="218.4" y1="-199.9" x2="281" y2="-228"/>
						<line class="st13" x1="218.2" y1="-190.8" x2="281" y2="-218.7"/>
						<line class="st13" x1="218.2" y1="-181.6" x2="281" y2="-209.7"/>
						<line class="st13" x1="218.2" y1="-172.3" x2="280.8" y2="-200.4"/>
						<line class="st13" x1="218.1" y1="-163.2" x2="280.8" y2="-191.2"/>
						<line class="st13" x1="218.1" y1="-154" x2="280.7" y2="-182.1"/>
						<line class="st13" x1="217.9" y1="-144.8" x2="280.7" y2="-172.9"/>
						<line class="st13" x1="217.9" y1="-135.7" x2="280.7" y2="-163.7"/>
						<line class="st13" x1="217.9" y1="-126.5" x2="280.6" y2="-154.6"/>
						<line class="st13" x1="217.8" y1="-117.2" x2="280.6" y2="-145.3"/>
						<line class="st13" x1="217.8" y1="-108.2" x2="280.6" y2="-136.3"/>
						<line class="st13" x1="217.7" y1="-98.9" x2="280.4" y2="-127"/>
						<line class="st13" x1="217.7" y1="-89.7" x2="280.4" y2="-117.8"/>
						<line class="st13" x1="217.7" y1="-80.6" x2="280.3" y2="-108.7"/>
						<line class="st13" x1="217.5" y1="-71.4" x2="280.3" y2="-99.5"/>
						<line class="st13" x1="217.5" y1="-62.2" x2="280.3" y2="-90.3"/>
						<line class="st13" x1="217.5" y1="-53.1" x2="280.1" y2="-81.2"/>
						<line class="st13" x1="217.4" y1="-43.8" x2="280.1" y2="-71.9"/>
						<line class="st13" x1="217.4" y1="-34.6" x2="280" y2="-62.7"/>
						<line class="st13" x1="217.2" y1="-25.5" x2="280" y2="-53.6"/>
						<line class="st13" x1="217.2" y1="-16.3" x2="280" y2="-44.4"/>
						<line class="st13" x1="217.2" y1="-7.1" x2="279.9" y2="-35.2"/>
						<line class="st13" x1="217.1" y1="2" x2="279.9" y2="-26.1"/>
						<line class="st13" x1="217.1" y1="11.2" x2="279.9" y2="-16.9"/>
						<line class="st13" x1="217" y1="20.5" x2="279.7" y2="-7.6"/>
						<line class="st13" x1="217" y1="29.6" x2="279.7" y2="1.5"/>
						<line class="st13" x1="217" y1="38.8" x2="279.6" y2="10.7"/>
						<line class="st13" x1="216.8" y1="48" x2="279.6" y2="19.9"/>
						<line class="st13" x1="216.8" y1="57.1" x2="279.6" y2="29"/>
						<line class="st13" x1="216.8" y1="66.3" x2="279.4" y2="38.2"/>
						<line class="st13" x1="216.7" y1="75.6" x2="279.4" y2="47.4"/>
						<line class="st13" x1="216.7" y1="84.6" x2="279.4" y2="56.5"/>
						<line class="st13" x1="216.5" y1="93.9" x2="279.3" y2="65.8"/>
						<line class="st13" x1="216.5" y1="103.1" x2="279.3" y2="75"/>
						<line class="st13" x1="216.5" y1="112.2" x2="279.2" y2="84.1"/>
						<line class="st13" x1="216.4" y1="121.4" x2="279.2" y2="93.3"/>
						<line class="st13" x1="216.4" y1="130.6" x2="279.2" y2="102.5"/>
						<line class="st13" x1="216.4" y1="139.7" x2="279" y2="111.6"/>
						<line class="st13" x1="216.3" y1="148.9" x2="279" y2="120.8"/>
						<line class="st13" x1="216.3" y1="158.2" x2="278.9" y2="130.1"/>
						<line class="st13" x1="216.1" y1="167.3" x2="278.9" y2="139.2"/>
					</g>
				</g>
			</g>
			<g>
				<path id="SVGID_21_" class="st13" d="M247.6-146c0-9.8,4.9-26.4,2.2-33.6c-2.5-7,0-17.8-0.4-21.4c-0.6-3.5-2.7-10.6-2.7-18.6
					c0,0,2.2,2.2,0.4-9.8c0,0,2.2-10.1,0.4-21.4c-1.8-11.2,1.5-20.1,1.5-24.9c0-4.8-2.1-15.2-2.1-15.2s2.7-2.1,2.7-8.7l9.2,1.5
					c0,0-2.4,11.3-1.8,15.5c0,0,2.7,2.9,1.5,16.9c0,0,2.7,0.8,0.6,14.5c-2.1,13.7,1.4,13.8,0.1,23.5c0,0-3.9,16.5-2.7,21
					c1.4-0.8,3.1,7.5,2.7,21.4c2.7,3.6-0.8,12.9-0.8,19.6c0,6.7-1,20.1-1,20.1l-0.4-0.8c0,0-2.4,11.3-1.8,15.5c0,0,2.7,2.9,1.5,16.9
					c0,0,2.7,0.8,0.6,14.5s1.4,13.8,0.1,23.5c0,0-3.9,16.5-2.7,21c1.4-0.8,3.1,7.5,2.7,21.4c2.7,3.6-0.8,12.9-0.8,19.6
					s-1,20.1-1,20.1l-0.4-0.3c0,0-2.4,11.3-1.8,15.5c0,0,2.7,2.9,1.5,16.9c0,0,2.7,0.8,0.6,14.5c-2.1,13.7,1.4,13.8,0.1,23.5
					c0,0-3.9,16.5-2.7,21c1.4-0.8,3.1,7.5,2.7,21.4c2.7,3.6-0.8,12.9-0.8,19.6s0.4,17.3,0.4,17.3l-12.4-0.4c0-9.8,6.3-23.6,3.6-30.8
					c-2.5-7,0-17.8-0.4-21.4c-0.6-3.5-2.7-10.6-2.7-18.6c0,0,2.2,2.2,0.4-9.8c0,0,2.2-10.1,0.4-21.4c-1.8-11.2,1.5-20.1,1.5-24.9
					S243.5,13,243.5,13s2.7-2.1,2.7-8.7l0,0c0-9.8,4.9-25,2.2-32.2c-2.5-7,0-17.8-0.4-21.4c-0.6-3.5-2.7-10.6-2.7-18.6
					c0,0,2.2,2.2,0.4-9.8c0,0,2.2-10.1,0.4-21.4c-1.8-11.2,1.5-20.1,1.5-24.9c0-4.8-2.8-15.7-2.8-15.7s2.7-2.1,2.7-8.7"/>
			</g>
		</g>
	</g>
</g>
</svg>
