<?xml version="1.0" encoding="utf-8"?>
<!-- Generator: Adobe Illustrator 19.2.1, SVG Export Plug-In . SVG Version: 6.00 Build 0)  -->
<svg version="1.1" id="Layer_1" xmlns="http://www.w3.org/2000/svg" xmlns:xlink="http://www.w3.org/1999/xlink" x="0px" y="0px"
	 viewBox="0 0 512 512" style="enable-background:new 0 0 512 512;" xml:space="preserve">
<path d="M369.7,161.2c-11.4,0-16.6,6.1-19.1,11.8c-21.8-11.6-44.4-11.8-44.4-11.8c-31.3,0-50.9,11.6-63.2,26.1
	c-25.2-26-63.6-26.1-63.6-26.1c-84.8,0-84.8,84.9-84.8,84.9v63.3c0,0,0,21.2,21.2,21.2c21.3,0,21.3-21.2,21.3-21.2v-63.3
	c0-42.6,42.3-42.6,42.3-42.6c42.3,0,42.3,42.6,42.3,42.6v63.3c0,0,0,21.2,21.2,21.2c21.1,0,21.1-21.2,21.1-21.2v-63.3
	c0-42.6,42.3-42.6,42.3-42.6c42.3,0,42.3,42.6,42.3,42.6v63.3c0,0,0,21.2,21.2,21.2c21.1,0,21.1-21.2,21.1-21.2v-63.3v-63.6
	C390.8,182.5,390.8,161.2,369.7,161.2z"/>
</svg>
